<svg width="188" height="175" viewBox="0 0 188 175" fill="none" xmlns="http://www.w3.org/2000/svg">
<path d="M138.584 152H135.152C134.848 152 134.592 151.912 134.384 151.736C134.192 151.544 134.08 151.328 134.048 151.088L131.84 135.8V135.728C131.84 135.584 131.888 135.464 131.984 135.368C132.096 135.256 132.224 135.2 132.368 135.2H136.832C137.36 135.2 137.648 135.416 137.696 135.848L138.512 142.616L139.496 139.616C139.656 139.152 139.928 138.92 140.312 138.92H142.76C143.144 138.92 143.416 139.152 143.576 139.616L144.56 142.592L145.376 135.848C145.424 135.416 145.712 135.2 146.24 135.2H150.704C150.848 135.2 150.968 135.256 151.064 135.368C151.176 135.464 151.232 135.584 151.232 135.728V135.8L149.024 151.088C148.992 151.328 148.872 151.544 148.664 151.736C148.472 151.912 148.224 152 147.92 152H144.488C143.992 152 143.664 151.784 143.504 151.352L141.536 146.432L139.568 151.352C139.408 151.784 139.08 152 138.584 152ZM167.862 147.176H160.71V147.296C160.71 148.272 161.022 148.76 161.646 148.76C161.822 148.76 162.038 148.632 162.294 148.376C162.55 148.12 162.83 147.992 163.134 147.992H167.67C168.022 147.992 168.198 148.168 168.198 148.52C168.198 149.304 167.606 150.12 166.422 150.968C165.254 151.816 163.662 152.24 161.646 152.24C159.646 152.24 158.006 151.72 156.726 150.68C155.462 149.624 154.83 148.176 154.83 146.336V145.184C154.83 143.44 155.478 142.024 156.774 140.936C158.07 139.832 159.766 139.28 161.862 139.28C163.974 139.28 165.606 139.896 166.758 141.128C167.926 142.36 168.51 143.92 168.51 145.808V146.528C168.51 146.704 168.446 146.856 168.318 146.984C168.19 147.112 168.038 147.176 167.862 147.176ZM162.63 144.08C162.63 143.12 162.31 142.64 161.67 142.64C161.03 142.64 160.71 143.12 160.71 144.08V144.176H162.63V144.08ZM186.478 144.8V146.696C186.478 148.584 186.006 149.984 185.062 150.896C184.118 151.792 182.886 152.24 181.366 152.24C179.846 152.24 178.67 151.704 177.838 150.632V151.352C177.838 151.528 177.774 151.68 177.646 151.808C177.518 151.936 177.366 152 177.19 152H173.11C172.934 152 172.782 151.936 172.654 151.808C172.526 151.68 172.462 151.528 172.462 151.352V135.608C172.462 135.432 172.526 135.28 172.654 135.152C172.782 135.024 172.934 134.96 173.11 134.96H177.55C177.726 134.96 177.878 135.024 178.006 135.152C178.134 135.28 178.198 135.432 178.198 135.608V140.408C179.03 139.656 180.134 139.28 181.51 139.28C182.902 139.28 184.078 139.752 185.038 140.696C185.998 141.64 186.478 143.008 186.478 144.8ZM178.198 146.552C178.198 147.48 178.598 147.944 179.398 147.944C180.198 147.944 180.598 147.48 180.598 146.552V144.968C180.598 144.04 180.198 143.576 179.398 143.576C178.646 143.576 178.246 143.976 178.198 144.776V146.552Z" fill="#BCCEE1"/>
<circle cx="87.5" cy="29.5" r="18.5" stroke="#BCCEE1" stroke-width="4"/>
<path fill-rule="evenodd" clip-rule="evenodd" d="M89.0225 71.7281C86.419 74.3316 86.419 78.5527 89.0225 81.1562L96.4506 87.5843L103.879 81.1562C106.482 78.5527 106.482 74.3316 103.879 71.7281C101.757 69.6068 99.0541 71.1246 96.4506 73.7281C93.8471 71.1246 90.7506 70 89.0225 71.7281ZM86.9012 69.6068C89.0225 67.4855 92.7701 67.9423 96.4506 70C100.131 67.9423 103.614 66.7968 106 69.6068C109.5 73.7281 109.775 79.5025 106 83.2775L96.4506 91.8269L86.9012 83.2775C83.1261 79.5025 83.1261 73.3819 86.9012 69.6068ZM1.5 144.5C1.5 130.326 11.6692 118.526 25.1098 116C26.8564 116.328 28.6581 116.5 30.5 116.5C46.5163 116.5 59.5 103.516 59.5 87.5C59.5 71.4837 46.5163 58.5 30.5 58.5C28.6581 58.5 26.8564 58.6717 25.1098 59C11.6692 56.4736 1.5 44.6744 1.5 30.5C1.5 14.4837 14.4837 1.5 30.5 1.5C44.6744 1.5 56.4736 11.6692 59 25.1098C58.6717 26.8564 58.5 28.6581 58.5 30.5C58.5 46.5163 71.4837 59.5 87.5 59.5C103.516 59.5 116.5 46.5163 116.5 30.5C116.5 28.6581 116.328 26.8564 116 25.1098C118.526 11.6692 130.326 1.5 144.5 1.5C160.516 1.5 173.5 14.4837 173.5 30.5C173.5 44.6744 163.331 56.4736 149.89 59C148.144 58.6717 146.342 58.5 144.5 58.5C128.484 58.5 115.5 71.4837 115.5 87.5C115.5 103.516 128.484 116.5 144.5 116.5C146.342 116.5 148.144 116.328 149.89 116C159.457 117.798 167.366 124.294 171.13 133H167.825C164.343 125.952 157.761 120.707 149.86 119.053C148.116 119.347 146.325 119.5 144.5 119.5C126.827 119.5 112.5 105.173 112.5 87.5C112.5 69.8269 126.827 55.5 144.5 55.5C146.325 55.5 148.116 55.653 149.86 55.9475C161.648 53.4784 170.5 43.0198 170.5 30.5C170.5 16.1406 158.859 4.5 144.5 4.5C131.98 4.5 121.522 13.352 119.053 25.1397C119.347 26.8845 119.5 28.6755 119.5 30.5C119.5 48.1731 105.173 62.5 87.5 62.5C69.8269 62.5 55.5 48.1731 55.5 30.5C55.5 28.6755 55.653 26.8845 55.9475 25.1397C53.4784 13.352 43.0198 4.5 30.5 4.5C16.1406 4.5 4.5 16.1406 4.5 30.5C4.5 43.0198 13.352 53.4784 25.1397 55.9475C26.8845 55.653 28.6755 55.5 30.5 55.5C48.1731 55.5 62.5 69.8269 62.5 87.5C62.5 105.173 48.1731 119.5 30.5 119.5C28.6755 119.5 26.8845 119.347 25.1397 119.053C13.352 121.522 4.5 131.98 4.5 144.5C4.5 158.859 16.1406 170.5 30.5 170.5C42.8696 170.5 53.2276 161.859 55.8554 150.282C55.6212 148.721 55.5 147.124 55.5 145.5C55.5 127.827 69.8269 113.5 87.5 113.5C105.173 113.5 119.5 127.827 119.5 145.5C119.5 147.124 119.379 148.721 119.145 150.282C121.772 161.859 132.13 170.5 144.5 170.5C155.123 170.5 164.258 164.129 168.293 155H171.541C167.334 165.826 156.813 173.5 144.5 173.5C130.493 173.5 118.806 163.57 116.094 150.366C116.361 148.784 116.5 147.158 116.5 145.5C116.5 129.484 103.516 116.5 87.5 116.5C71.4837 116.5 58.5 129.484 58.5 145.5C58.5 147.158 58.6392 148.784 58.9064 150.366C56.1941 163.57 44.5067 173.5 30.5 173.5C14.4837 173.5 1.5 160.516 1.5 144.5Z" fill="#BCCEE1"/>
<path d="M89.0225 81.1562L87.9618 82.2169L88.0001 82.2551L88.0409 82.2905L89.0225 81.1562ZM96.4506 87.5843L95.469 88.7186L96.4506 89.568L97.4321 88.7186L96.4506 87.5843ZM103.879 81.1562L104.86 82.2905L104.901 82.2551L104.939 82.2169L103.879 81.1562ZM96.4506 73.7281L95.3899 74.7888L96.4506 75.8494L97.5112 74.7888L96.4506 73.7281ZM96.4506 70L95.7186 71.3093L96.4506 71.7185L97.1826 71.3093L96.4506 70ZM86.9012 69.6068L87.9618 70.6675L87.9618 70.6675L86.9012 69.6068ZM106 69.6068L104.857 70.5778L104.857 70.5778L106 69.6068ZM106 83.2775L107.001 84.3951L107.031 84.3675L107.061 84.3382L106 83.2775ZM96.4506 91.8269L95.4501 92.9445L96.4506 93.8402L97.4511 92.9445L96.4506 91.8269ZM86.9012 83.2775L85.8405 84.3382L85.8698 84.3675L85.9006 84.3951L86.9012 83.2775ZM25.1098 116L25.3869 114.526L25.1098 114.474L24.8327 114.526L25.1098 116ZM25.1098 59L24.8327 60.4742L25.1098 60.5263L25.3869 60.4742L25.1098 59ZM59 25.1098L60.4742 25.3869L60.5263 25.1098L60.4742 24.8327L59 25.1098ZM116 25.1098L114.526 24.8327L114.474 25.1098L114.526 25.3869L116 25.1098ZM149.89 59L149.613 60.4742L149.89 60.5263L150.167 60.4742L149.89 59ZM149.89 116L150.167 114.526L149.89 114.474L149.613 114.526L149.89 116ZM171.13 133V134.5H173.413L172.507 132.405L171.13 133ZM167.825 133L166.48 133.664L166.893 134.5H167.825V133ZM149.86 119.053L150.168 117.584L149.89 117.526L149.611 117.573L149.86 119.053ZM149.86 55.9475L149.611 57.4265L149.89 57.4737L150.168 57.4156L149.86 55.9475ZM119.053 25.1397L117.584 24.8322L117.526 25.1097L117.573 25.3893L119.053 25.1397ZM55.9475 25.1397L57.4265 25.3893L57.4737 25.1097L57.4156 24.8322L55.9475 25.1397ZM25.1397 55.9475L24.8322 57.4156L25.1097 57.4737L25.3893 57.4265L25.1397 55.9475ZM25.1397 119.053L25.3893 117.573L25.1097 117.526L24.8322 117.584L25.1397 119.053ZM55.8554 150.282L57.3182 150.614L57.3806 150.339L57.3388 150.06L55.8554 150.282ZM119.145 150.282L117.661 150.06L117.619 150.339L117.682 150.614L119.145 150.282ZM168.293 155V153.5H167.316L166.921 154.394L168.293 155ZM171.541 155L172.939 155.543L173.733 153.5H171.541V155ZM116.094 150.366L114.615 150.116L114.568 150.393L114.624 150.668L116.094 150.366ZM58.9064 150.366L60.3758 150.668L60.4322 150.393L60.3855 150.116L58.9064 150.366ZM90.0832 80.0955C88.0654 78.0778 88.0654 74.8065 90.0832 72.7888L87.9618 70.6675C84.7726 73.8567 84.7726 79.0276 87.9618 82.2169L90.0832 80.0955ZM97.4321 86.45L90.0041 80.0219L88.0409 82.2905L95.469 88.7186L97.4321 86.45ZM102.897 80.0219L95.469 86.45L97.4321 88.7186L104.86 82.2905L102.897 80.0219ZM102.818 72.7888C104.836 74.8065 104.836 78.0778 102.818 80.0955L104.939 82.2169C108.129 79.0276 108.129 73.8567 104.939 70.6675L102.818 72.7888ZM97.5112 74.7888C98.769 73.5311 99.8994 72.699 100.837 72.3733C101.282 72.2189 101.627 72.1983 101.903 72.2519C102.167 72.3033 102.472 72.4429 102.818 72.7888L104.939 70.6675C104.225 69.9526 103.397 69.4865 102.476 69.3072C101.566 69.1301 100.675 69.254 99.8534 69.5393C98.2586 70.093 96.7357 71.3217 95.3899 72.6675L97.5112 74.7888ZM90.0832 72.7888C90.4338 72.4382 91.0001 72.2504 91.9814 72.5417C92.9852 72.8398 94.2023 73.6011 95.3899 74.7888L97.5112 72.6675C96.0954 71.2516 94.4625 70.1489 92.8352 69.6658C91.1853 69.176 89.3393 69.29 87.9618 70.6675L90.0832 72.7888ZM97.1826 68.6907C95.2109 67.5884 93.1356 66.8639 91.1869 66.7393C89.222 66.6137 87.286 67.1007 85.8405 68.5461L87.9618 70.6675C88.6377 69.9916 89.6362 69.6463 90.9955 69.7332C92.371 69.8212 94.0098 70.3539 95.7186 71.3093L97.1826 68.6907ZM107.143 68.6358C105.578 66.7922 103.585 66.2463 101.535 66.4884C99.5974 66.7171 97.591 67.6439 95.7186 68.6907L97.1826 71.3093C98.9907 70.2984 100.566 69.6236 101.886 69.4677C103.094 69.3251 104.036 69.6114 104.857 70.5778L107.143 68.6358ZM107.061 84.3382C111.49 79.9085 111.05 73.2356 107.143 68.6358L104.857 70.5778C107.95 74.2206 108.06 79.0964 104.939 82.2169L107.061 84.3382ZM97.4511 92.9445L107.001 84.3951L104.999 82.16L95.4501 90.7094L97.4511 92.9445ZM85.9006 84.3951L95.4501 92.9445L97.4511 90.7094L87.9017 82.16L85.9006 84.3951ZM85.8405 68.5461C81.4797 72.907 81.4797 79.9773 85.8405 84.3382L87.9618 82.2169C84.7726 79.0276 84.7726 73.8567 87.9618 70.6675L85.8405 68.5461ZM24.8327 114.526C10.696 117.183 0 129.591 0 144.5H3C3 131.06 12.6423 119.87 25.3869 117.474L24.8327 114.526ZM30.5 115C28.7515 115 27.0425 114.837 25.3869 114.526L24.8327 117.474C26.6702 117.82 28.5647 118 30.5 118V115ZM58 87.5C58 102.688 45.6878 115 30.5 115V118C47.3447 118 61 104.345 61 87.5H58ZM30.5 60C45.6878 60 58 72.3122 58 87.5H61C61 70.6553 47.3447 57 30.5 57V60ZM25.3869 60.4742C27.0425 60.163 28.7515 60 30.5 60V57C28.5647 57 26.6702 57.1804 24.8327 57.5258L25.3869 60.4742ZM0 30.5C0 45.4092 10.696 57.817 24.8327 60.4742L25.3869 57.5258C12.6423 55.1303 3 43.9396 3 30.5H0ZM30.5 0C13.6553 0 0 13.6553 0 30.5H3C3 15.3122 15.3122 3 30.5 3V0ZM60.4742 24.8327C57.817 10.696 45.4092 0 30.5 0V3C43.9396 3 55.1303 12.6423 57.5258 25.3869L60.4742 24.8327ZM60 30.5C60 28.7515 60.163 27.0425 60.4742 25.3869L57.5258 24.8327C57.1804 26.6702 57 28.5647 57 30.5H60ZM87.5 58C72.3122 58 60 45.6878 60 30.5H57C57 47.3447 70.6553 61 87.5 61V58ZM115 30.5C115 45.6878 102.688 58 87.5 58V61C104.345 61 118 47.3447 118 30.5H115ZM114.526 25.3869C114.837 27.0425 115 28.7515 115 30.5H118C118 28.5647 117.82 26.6702 117.474 24.8327L114.526 25.3869ZM144.5 0C129.591 0 117.183 10.696 114.526 24.8327L117.474 25.3869C119.87 12.6423 131.06 3 144.5 3V0ZM175 30.5C175 13.6553 161.345 0 144.5 0V3C159.688 3 172 15.3122 172 30.5H175ZM150.167 60.4742C164.304 57.817 175 45.4092 175 30.5H172C172 43.9396 162.358 55.1303 149.613 57.5258L150.167 60.4742ZM144.5 60C146.248 60 147.957 60.163 149.613 60.4742L150.167 57.5258C148.33 57.1804 146.435 57 144.5 57V60ZM117 87.5C117 72.3122 129.312 60 144.5 60V57C127.655 57 114 70.6553 114 87.5H117ZM144.5 115C129.312 115 117 102.688 117 87.5H114C114 104.345 127.655 118 144.5 118V115ZM149.613 114.526C147.957 114.837 146.248 115 144.5 115V118C146.435 118 148.33 117.82 150.167 117.474L149.613 114.526ZM172.507 132.405C168.548 123.25 160.233 116.418 150.167 114.526L149.613 117.474C158.68 119.179 166.183 125.338 169.754 133.595L172.507 132.405ZM167.825 134.5H171.13V131.5H167.825V134.5ZM149.553 120.521C156.993 122.079 163.198 127.02 166.48 133.664L169.17 132.336C165.488 124.883 158.529 119.336 150.168 117.584L149.553 120.521ZM144.5 121C146.409 121 148.283 120.84 150.11 120.532L149.611 117.573C147.948 117.854 146.241 118 144.5 118V121ZM111 87.5C111 106.002 125.998 121 144.5 121V118C127.655 118 114 104.345 114 87.5H111ZM144.5 54C125.998 54 111 68.9985 111 87.5H114C114 70.6553 127.655 57 144.5 57V54ZM150.11 54.4684C148.283 54.1601 146.409 54 144.5 54V57C146.241 57 147.948 57.1459 149.611 57.4265L150.11 54.4684ZM169 30.5C169 42.2959 160.659 52.1529 149.553 54.4793L150.168 57.4156C162.636 54.8039 172 43.7438 172 30.5H169ZM144.5 6C158.031 6 169 16.969 169 30.5H172C172 15.3122 159.688 3 144.5 3V6ZM120.521 25.4472C122.847 14.3405 132.704 6 144.5 6V3C131.256 3 120.196 12.3635 117.584 24.8322L120.521 25.4472ZM121 30.5C121 28.5915 120.84 26.717 120.532 24.8901L117.573 25.3893C117.854 27.052 118 28.7595 118 30.5H121ZM87.5 64C106.002 64 121 49.0015 121 30.5H118C118 47.3447 104.345 61 87.5 61V64ZM54 30.5C54 49.0015 68.9985 64 87.5 64V61C70.6553 61 57 47.3447 57 30.5H54ZM54.4684 24.8901C54.1601 26.717 54 28.5915 54 30.5H57C57 28.7595 57.1459 27.052 57.4265 25.3893L54.4684 24.8901ZM30.5 6C42.2959 6 52.1529 14.3406 54.4793 25.4472L57.4156 24.8322C54.8039 12.3635 43.7438 3 30.5 3V6ZM6 30.5C6 16.969 16.969 6 30.5 6V3C15.3122 3 3 15.3122 3 30.5H6ZM25.4472 54.4793C14.3406 52.1529 6 42.2959 6 30.5H3C3 43.7438 12.3635 54.8039 24.8322 57.4156L25.4472 54.4793ZM30.5 54C28.5915 54 26.717 54.1601 24.8901 54.4684L25.3893 57.4265C27.052 57.1459 28.7595 57 30.5 57V54ZM64 87.5C64 68.9985 49.0015 54 30.5 54V57C47.3447 57 61 70.6553 61 87.5H64ZM30.5 121C49.0015 121 64 106.002 64 87.5H61C61 104.345 47.3447 118 30.5 118V121ZM24.8901 120.532C26.717 120.84 28.5915 121 30.5 121V118C28.7595 118 27.052 117.854 25.3893 117.573L24.8901 120.532ZM6 144.5C6 132.704 14.3405 122.847 25.4472 120.521L24.8322 117.584C12.3635 120.196 3 131.256 3 144.5H6ZM30.5 169C16.969 169 6 158.031 6 144.5H3C3 159.688 15.3122 172 30.5 172V169ZM54.3926 149.95C51.9166 160.859 42.1542 169 30.5 169V172C43.585 172 54.5387 162.86 57.3182 150.614L54.3926 149.95ZM54 145.5C54 147.198 54.1267 148.87 54.372 150.505L57.3388 150.06C57.1156 148.572 57 147.049 57 145.5H54ZM87.5 112C68.9985 112 54 126.998 54 145.5H57C57 128.655 70.6553 115 87.5 115V112ZM121 145.5C121 126.998 106.002 112 87.5 112V115C104.345 115 118 128.655 118 145.5H121ZM120.628 150.505C120.873 148.87 121 147.198 121 145.5H118C118 147.049 117.884 148.572 117.661 150.06L120.628 150.505ZM144.5 169C132.846 169 123.083 160.858 120.607 149.95L117.682 150.614C120.461 162.86 131.415 172 144.5 172V169ZM166.921 154.394C163.117 162.999 154.508 169 144.5 169V172C155.738 172 165.398 165.259 169.665 155.606L166.921 154.394ZM171.541 153.5H168.293V156.5H171.541V153.5ZM144.5 175C157.452 175 168.516 166.927 172.939 155.543L170.143 154.457C166.152 164.725 156.174 172 144.5 172V175ZM114.624 150.668C117.477 164.555 129.767 175 144.5 175V172C131.22 172 120.135 162.585 117.563 150.064L114.624 150.668ZM115 145.5C115 147.074 114.868 148.616 114.615 150.116L117.573 150.616C117.854 148.951 118 147.242 118 145.5H115ZM87.5 118C102.688 118 115 130.312 115 145.5H118C118 128.655 104.345 115 87.5 115V118ZM60 145.5C60 130.312 72.3122 118 87.5 118V115C70.6553 115 57 128.655 57 145.5H60ZM60.3855 150.116C60.1321 148.616 60 147.074 60 145.5H57C57 147.242 57.1462 148.951 57.4274 150.616L60.3855 150.116ZM30.5 175C45.2329 175 57.523 164.555 60.3758 150.668L57.4371 150.064C54.8652 162.585 43.7804 172 30.5 172V175ZM0 144.5C0 161.345 13.6553 175 30.5 175V172C15.3122 172 3 159.688 3 144.5H0Z" fill="#BCCEE1"/>
</svg>
