<svg width="172" height="172" viewBox="0 0 172 172" fill="none" xmlns="http://www.w3.org/2000/svg">
<circle cx="86.5" cy="28.5" r="20.5" fill="#BCCEE1"/>
<path fill-rule="evenodd" clip-rule="evenodd" d="M23.6098 114.5C25.3564 114.828 27.1581 115 29 115C45.0163 115 58 102.016 58 86C58 69.9837 45.0163 57 29 57C27.1581 57 25.3564 57.1717 23.6098 57.5C10.1692 54.9736 0 43.1744 0 29C0 12.9837 12.9837 0 29 0C43.1744 0 54.9736 10.1692 57.5 23.6098C57.1717 25.3564 57 27.1581 57 29C57 45.0163 69.9837 58 86 58C102.016 58 115 45.0163 115 29C115 27.1581 114.828 25.3564 114.5 23.6098C117.026 10.1692 128.826 0 143 0C159.016 0 172 12.9837 172 29C172 43.1744 161.831 54.9736 148.39 57.5C146.644 57.1717 144.842 57 143 57C126.984 57 114 69.9837 114 86C114 102.016 126.984 115 143 115C144.842 115 146.644 114.828 148.39 114.5C161.831 117.026 172 128.826 172 143C172 159.016 159.016 172 143 172C128.993 172 117.306 162.07 114.594 148.866C114.861 147.284 115 145.658 115 144C115 127.984 102.016 115 86 115C69.9837 115 57 127.984 57 144C57 145.658 57.1392 147.284 57.4064 148.866C54.6941 162.07 43.0067 172 29 172C12.9837 172 0 159.016 0 143C0 128.826 10.1692 117.026 23.6098 114.5ZM88.7141 76.8562C86.1105 74.2527 86.1105 70.0316 88.7141 67.4281C91.3175 64.8246 95.5386 64.8246 98.1421 67.4281C100.746 64.8246 104.967 64.8246 107.57 67.4281C110.174 70.0316 110.174 74.2527 107.57 76.8562L107.567 76.8598L98.1421 86.2843L88.7141 76.8562Z" fill="#BCCEE1"/>
</svg>
