<svg width="273" height="228" viewBox="0 0 273 228" fill="none" xmlns="http://www.w3.org/2000/svg">
<path d="M166.138 121.055C132.99 121.055 85.9911 172.299 85.9911 204.646C85.9911 219.215 97.1825 227.918 115.938 227.918C136.325 227.918 149.787 217.449 166.138 217.449C182.631 217.449 196.131 227.918 216.339 227.918C235.094 227.918 246.285 219.215 246.285 204.646C246.285 172.299 199.286 121.055 166.138 121.055ZM104.659 115.792C101.875 106.518 95.378 99.3389 87.8696 96.1471C87.8696 96.1471 87.8696 107.117 87.8696 112.289C87.8696 124.812 87.8696 125.438 87.8696 136.083C87.8696 146.728 75.932 145.593 79.5209 146.736C83.1098 147.88 86.8657 148.112 90.5119 147.241C102.668 144.336 109 130.256 104.659 115.792ZM140.024 107.117C152.939 103.719 159.401 86.2707 154.458 68.1458C149.516 50.0209 135.039 38.0865 122.124 41.4844C115.024 43.3524 109.874 50.3017 107.497 58.4405C125.021 58.4405 136.277 58.2451 140.024 59.4841C143.179 60.5277 150.439 68.1458 148.397 75.764C146.758 81.8812 144.481 85.6746 138.379 87.0347C127.317 87.0347 116.255 88.0782 110.48 88.0782C116.89 101.783 129.026 110.015 140.024 107.117ZM257.485 94.8699C245.329 91.9645 231.959 101.332 227.614 115.796C223.272 130.26 229.605 144.34 241.76 147.245C253.916 150.15 267.286 140.783 271.632 126.319C275.973 111.855 269.641 97.7752 257.485 94.8699ZM192.253 107.117C205.168 110.515 219.645 98.5808 224.587 80.4559C229.53 62.331 223.068 44.8865 210.152 41.4844C197.237 38.0823 182.76 50.0209 177.818 68.1458C172.876 86.2707 179.337 103.719 192.253 107.117Z" fill="#202C38"/>
<rect y="61.3625" width="146.101" height="23.3762" rx="11.6881" fill="#202C38"/>
<rect x="84.7388" width="146.101" height="23.3762" rx="11.6881" transform="rotate(90 84.7388 0)" fill="#202C38"/>
</svg>
