<svg width="767" height="664" viewBox="0 0 767 664" fill="none" xmlns="http://www.w3.org/2000/svg">
<rect y="147" width="350" height="56" rx="28" fill="#BCCEE1"/>
<rect x="203" width="350" height="56" rx="28" transform="rotate(90 203 0)" fill="#BCCEE1"/>
<path d="M510.008 407.007C430.598 407.007 318.008 529.767 318.008 607.257C318.008 642.157 344.818 663.007 389.748 663.007C438.588 663.007 470.838 637.927 510.008 637.927C549.518 637.927 581.858 663.007 630.268 663.007C675.198 663.007 702.008 642.157 702.008 607.257C702.008 529.767 589.418 407.007 510.008 407.007ZM362.728 394.397C352.328 359.747 320.288 337.307 291.168 344.267C262.048 351.227 246.878 384.957 257.278 419.607C267.678 454.257 299.718 476.697 328.838 469.737C357.958 462.777 373.128 429.047 362.728 394.397V394.397ZM447.448 373.617C478.388 365.477 493.868 323.677 482.028 280.257C470.188 236.837 435.508 208.247 404.568 216.387C373.628 224.527 358.148 266.327 369.988 309.747C381.828 353.167 416.518 381.767 447.448 373.617ZM728.838 344.277C699.718 337.317 667.688 359.757 657.278 394.407C646.878 429.057 662.048 462.787 691.168 469.747C720.288 476.707 752.318 454.267 762.728 419.617C773.128 384.967 757.958 351.237 728.838 344.277V344.277ZM572.568 373.617C603.508 381.757 638.188 353.167 650.028 309.747C661.868 266.327 646.388 224.537 615.448 216.387C584.508 208.237 549.828 236.837 537.988 280.257C526.148 323.677 541.628 365.477 572.568 373.617V373.617Z" fill="#BCCEE1"/>
</svg>
