<svg width="641" height="633" viewBox="0 0 641 633" fill="none" xmlns="http://www.w3.org/2000/svg">
<circle cx="389.961" cy="54.3605" r="37.6628" fill="#BCCEE1"/>
<path d="M425.742 409C408.842 409 392.942 400 384.342 385.6L320.042 279L255.842 385.6C247.142 400.1 231.242 409.1 214.342 409.1C209.842 409.1 205.342 408.5 201.042 407.2L64.0423 368V546C64.0423 560.7 74.0423 573.5 88.2423 577L304.442 631.1C314.642 633.6 325.342 633.6 335.442 631.1L551.842 577C566.042 573.4 576.042 560.6 576.042 546V368L439.042 407.1C434.742 408.4 430.242 409 425.742 409ZM638.342 296.8L586.842 194C583.742 187.8 577.042 184.2 570.142 185.1L320.042 217L411.742 369.1C415.542 375.4 423.142 378.4 430.242 376.4L628.142 319.9C638.042 317 642.842 306 638.342 296.8ZM53.2423 194L1.74233 296.8C-2.85767 306 2.04233 317 11.8423 319.8L209.742 376.3C216.842 378.3 224.442 375.3 228.242 369L320.042 217L69.8423 185.1C62.9423 184.3 56.3423 187.8 53.2423 194Z" fill="#BCCEE1"/>
<path fill-rule="evenodd" clip-rule="evenodd" d="M319.044 198.412C330.405 188.641 337.6 174.161 337.6 158C337.6 128.575 313.747 104.721 284.321 104.721C280.938 104.721 277.627 105.036 274.419 105.64C249.725 100.998 231.042 79.3204 231.042 53.2791C231.042 23.8539 254.896 0 284.321 0C310.363 0 332.04 18.6829 336.682 43.3762C336.079 46.5849 335.763 49.8952 335.763 53.2791C335.763 82.7043 359.617 106.558 389.042 106.558C418.468 106.558 442.321 82.7043 442.321 53.2791C442.321 49.8952 442.006 46.5849 441.403 43.3762C446.044 18.6829 467.722 0 493.763 0C523.189 0 547.042 23.8539 547.042 53.2791C547.042 79.3204 528.359 100.998 503.666 105.64C500.457 105.036 497.147 104.721 493.763 104.721C464.338 104.721 440.484 128.575 440.484 158C440.484 166.969 442.701 175.421 446.615 182.837L319.542 198.5L319.044 198.412ZM411.35 123.88C416.133 119.096 423.888 119.096 428.671 123.88C433.455 128.663 433.455 136.418 428.671 141.201L411.35 158.522L394.039 141.211L394.029 141.201C389.245 136.418 389.245 128.663 394.029 123.88C398.812 119.096 406.567 119.096 411.35 123.88Z" fill="#BCCEE1"/>
<path d="M221.126 249.5H217.694C217.39 249.5 217.134 249.412 216.926 249.236C216.734 249.044 216.622 248.828 216.59 248.588L214.382 233.3V233.228C214.382 233.084 214.43 232.964 214.526 232.868C214.638 232.756 214.766 232.7 214.91 232.7H219.374C219.902 232.7 220.19 232.916 220.238 233.348L221.054 240.116L222.038 237.116C222.198 236.652 222.47 236.42 222.854 236.42H225.302C225.686 236.42 225.958 236.652 226.118 237.116L227.102 240.092L227.918 233.348C227.966 232.916 228.254 232.7 228.782 232.7H233.246C233.39 232.7 233.51 232.756 233.606 232.868C233.718 232.964 233.774 233.084 233.774 233.228V233.3L231.566 248.588C231.534 248.828 231.414 249.044 231.206 249.236C231.014 249.412 230.766 249.5 230.462 249.5H227.03C226.534 249.5 226.206 249.284 226.046 248.852L224.078 243.932L222.11 248.852C221.95 249.284 221.622 249.5 221.126 249.5ZM250.405 244.676H243.253V244.796C243.253 245.772 243.565 246.26 244.189 246.26C244.365 246.26 244.581 246.132 244.837 245.876C245.093 245.62 245.373 245.492 245.677 245.492H250.213C250.565 245.492 250.741 245.668 250.741 246.02C250.741 246.804 250.149 247.62 248.965 248.468C247.797 249.316 246.205 249.74 244.189 249.74C242.189 249.74 240.549 249.22 239.269 248.18C238.005 247.124 237.373 245.676 237.373 243.836V242.684C237.373 240.94 238.021 239.524 239.317 238.436C240.613 237.332 242.309 236.78 244.405 236.78C246.517 236.78 248.149 237.396 249.301 238.628C250.469 239.86 251.053 241.42 251.053 243.308V244.028C251.053 244.204 250.989 244.356 250.861 244.484C250.733 244.612 250.581 244.676 250.405 244.676ZM245.173 241.58C245.173 240.62 244.853 240.14 244.213 240.14C243.573 240.14 243.253 240.62 243.253 241.58V241.676H245.173V241.58ZM269.02 242.3V244.196C269.02 246.084 268.548 247.484 267.604 248.396C266.66 249.292 265.428 249.74 263.908 249.74C262.388 249.74 261.212 249.204 260.38 248.132V248.852C260.38 249.028 260.316 249.18 260.188 249.308C260.06 249.436 259.908 249.5 259.732 249.5H255.652C255.476 249.5 255.324 249.436 255.196 249.308C255.068 249.18 255.004 249.028 255.004 248.852V233.108C255.004 232.932 255.068 232.78 255.196 232.652C255.324 232.524 255.476 232.46 255.652 232.46H260.092C260.268 232.46 260.42 232.524 260.548 232.652C260.676 232.78 260.74 232.932 260.74 233.108V237.908C261.572 237.156 262.676 236.78 264.052 236.78C265.444 236.78 266.62 237.252 267.58 238.196C268.54 239.14 269.02 240.508 269.02 242.3ZM260.74 244.052C260.74 244.98 261.14 245.444 261.94 245.444C262.74 245.444 263.14 244.98 263.14 244.052V242.468C263.14 241.54 262.74 241.076 261.94 241.076C261.188 241.076 260.788 241.476 260.74 242.276V244.052Z" fill="#BCCEE1"/>
<circle cx="170.042" cy="127" r="17.5" stroke="#BCCEE1" stroke-width="6"/>
<path fill-rule="evenodd" clip-rule="evenodd" d="M171.565 169.228C168.961 171.832 168.961 176.053 171.565 178.656L178.993 185.084L186.421 178.656C189.025 176.053 189.025 171.832 186.421 169.228C184.3 167.107 181.596 168.625 178.993 171.228C176.389 168.625 173.293 167.5 171.565 169.228ZM169.444 167.107C171.565 164.985 175.312 165.442 178.993 167.5C182.673 165.442 186.156 164.297 188.542 167.107C192.042 171.228 192.317 177.002 188.542 180.778L178.993 189.327L169.444 180.778C165.668 177.002 165.668 170.882 169.444 167.107ZM84.0424 242C84.0424 227.826 94.2115 216.026 107.652 213.5C109.399 213.828 111.2 214 113.042 214C129.059 214 142.042 201.016 142.042 185C142.042 168.984 129.059 156 113.042 156C111.2 156 109.399 156.172 107.652 156.5C94.2115 153.974 84.0424 142.174 84.0424 128C84.0424 111.984 97.0261 99 113.042 99C127.217 99 139.016 109.169 141.542 122.61C141.214 124.356 141.042 126.158 141.042 128C141.042 144.016 154.026 157 170.042 157C186.059 157 199.042 144.016 199.042 128C199.042 126.158 198.871 124.356 198.542 122.61C201.069 109.169 212.868 99 227.042 99C243.059 99 256.042 111.984 256.042 128C256.042 142.174 245.873 153.974 232.433 156.5C230.686 156.172 228.884 156 227.042 156C211.026 156 198.042 168.984 198.042 185C198.042 201.016 211.026 214 227.042 214C228.884 214 230.686 213.828 232.433 213.5C241.999 215.298 249.908 221.794 253.673 230.5H250.367C246.885 223.452 240.303 218.207 232.403 216.553C230.658 216.847 228.867 217 227.042 217C209.369 217 195.042 202.673 195.042 185C195.042 167.327 209.369 153 227.042 153C228.867 153 230.658 153.153 232.403 153.447C244.19 150.978 253.042 140.52 253.042 128C253.042 113.641 241.402 102 227.042 102C214.523 102 204.064 110.852 201.595 122.64C201.889 124.384 202.042 126.175 202.042 128C202.042 145.673 187.715 160 170.042 160C152.369 160 138.042 145.673 138.042 128C138.042 126.175 138.195 124.384 138.49 122.64C136.021 110.852 125.562 102 113.042 102C98.683 102 87.0424 113.641 87.0424 128C87.0424 140.52 95.8944 150.978 107.682 153.447C109.427 153.153 111.218 153 113.042 153C130.715 153 145.042 167.327 145.042 185C145.042 202.673 130.715 217 113.042 217C111.218 217 109.427 216.847 107.682 216.553C95.8944 219.022 87.0424 229.48 87.0424 242C87.0424 256.359 98.683 268 113.042 268C125.412 268 135.77 259.359 138.398 247.782C138.164 246.221 138.042 244.624 138.042 243C138.042 225.327 152.369 211 170.042 211C187.715 211 202.042 225.327 202.042 243C202.042 244.624 201.921 246.221 201.687 247.782C204.315 259.359 214.673 268 227.042 268C237.665 268 246.8 261.629 250.835 252.5H254.083C249.876 263.326 239.355 271 227.042 271C213.036 271 201.348 261.07 198.636 247.866C198.903 246.284 199.042 244.658 199.042 243C199.042 226.984 186.059 214 170.042 214C154.026 214 141.042 226.984 141.042 243C141.042 244.658 141.182 246.284 141.449 247.866C138.736 261.07 127.049 271 113.042 271C97.0261 271 84.0424 258.016 84.0424 242Z" fill="#BCCEE1"/>
<path d="M171.565 178.656L170.151 180.07L170.202 180.121L170.256 180.169L171.565 178.656ZM178.993 185.084L177.684 186.597L178.993 187.729L180.302 186.597L178.993 185.084ZM186.421 178.656L187.73 180.169L187.784 180.121L187.835 180.07L186.421 178.656ZM178.993 171.228L177.579 172.642L178.993 174.057L180.407 172.642L178.993 171.228ZM178.993 167.5L178.017 169.246L178.993 169.791L179.969 169.246L178.993 167.5ZM169.444 167.107L170.858 168.521L170.858 168.521L169.444 167.107ZM188.542 167.107L187.018 168.401L187.018 168.401L188.542 167.107ZM188.542 180.778L189.876 182.268L189.918 182.231L189.957 182.192L188.542 180.778ZM178.993 189.327L177.659 190.817L178.993 192.011L180.327 190.817L178.993 189.327ZM169.444 180.778L168.029 182.192L168.068 182.231L168.109 182.268L169.444 180.778ZM107.652 213.5L108.022 211.534L107.652 211.465L107.283 211.534L107.652 213.5ZM107.652 156.5L107.283 158.466L107.652 158.535L108.022 158.466L107.652 156.5ZM141.542 122.61L143.508 122.979L143.577 122.61L143.508 122.24L141.542 122.61ZM198.542 122.61L196.577 122.24L196.507 122.61L196.577 122.979L198.542 122.61ZM232.433 156.5L232.063 158.466L232.433 158.535L232.802 158.466L232.433 156.5ZM232.433 213.5L232.802 211.534L232.433 211.465L232.063 211.534L232.433 213.5ZM253.673 230.5V232.5H256.717L255.508 229.706L253.673 230.5ZM250.367 230.5L248.574 231.386L249.124 232.5H250.367V230.5ZM232.403 216.553L232.813 214.595L232.443 214.518L232.07 214.58L232.403 216.553ZM232.403 153.447L232.07 155.42L232.443 155.482L232.813 155.405L232.403 153.447ZM201.595 122.64L199.637 122.23L199.56 122.6L199.623 122.973L201.595 122.64ZM138.49 122.64L140.462 122.973L140.525 122.6L140.447 122.23L138.49 122.64ZM107.682 153.447L107.272 155.405L107.642 155.482L108.015 155.42L107.682 153.447ZM107.682 216.553L108.015 214.58L107.642 214.518L107.272 214.595L107.682 216.553ZM138.398 247.782L140.348 248.225L140.431 247.858L140.376 247.486L138.398 247.782ZM201.687 247.782L199.709 247.486L199.653 247.858L199.737 248.225L201.687 247.782ZM250.835 252.5V250.5H249.532L249.006 251.692L250.835 252.5ZM254.083 252.5L255.947 253.224L257.006 250.5H254.083V252.5ZM198.636 247.866L196.664 247.533L196.602 247.902L196.677 248.268L198.636 247.866ZM141.449 247.866L143.408 248.268L143.483 247.902L143.421 247.533L141.449 247.866ZM172.979 177.242C171.157 175.42 171.157 172.465 172.979 170.642L170.151 167.814C166.766 171.198 166.766 176.686 170.151 180.07L172.979 177.242ZM180.302 183.572L172.874 177.144L170.256 180.169L177.684 186.597L180.302 183.572ZM185.112 177.144L177.684 183.572L180.302 186.597L187.73 180.169L185.112 177.144ZM185.007 170.642C186.829 172.465 186.829 175.42 185.007 177.242L187.835 180.07C191.22 176.686 191.22 171.198 187.835 167.814L185.007 170.642ZM180.407 172.642C181.65 171.399 182.715 170.633 183.544 170.346C183.926 170.213 184.18 170.21 184.349 170.243C184.504 170.273 184.722 170.358 185.007 170.642L187.835 167.814C187.059 167.038 186.144 166.517 185.114 166.316C184.098 166.119 183.116 166.26 182.232 166.567C180.528 167.159 178.939 168.453 177.579 169.814L180.407 172.642ZM172.979 170.642C173.159 170.463 173.512 170.263 174.381 170.521C175.281 170.788 176.429 171.493 177.579 172.642L180.407 169.814C178.953 168.36 177.251 167.2 175.52 166.686C173.759 166.164 171.699 166.265 170.151 167.814L172.979 170.642ZM179.969 165.754C177.953 164.627 175.805 163.871 173.761 163.74C171.695 163.608 169.603 164.119 168.029 165.693L170.858 168.521C171.405 167.973 172.248 167.652 173.506 167.732C174.786 167.814 176.352 168.315 178.017 169.246L179.969 165.754ZM190.067 165.812C188.377 163.822 186.209 163.233 184.018 163.492C181.978 163.733 179.9 164.702 178.017 165.754L179.969 169.246C181.766 168.241 183.27 167.608 184.487 167.464C185.554 167.338 186.321 167.581 187.018 168.401L190.067 165.812ZM189.957 182.192C194.604 177.544 194.109 170.571 190.067 165.812L187.018 168.401C189.976 171.885 190.03 176.461 187.128 179.363L189.957 182.192ZM180.327 190.817L189.876 182.268L187.208 179.287L177.659 187.837L180.327 190.817ZM168.109 182.268L177.659 190.817L180.327 187.837L170.778 179.287L168.109 182.268ZM168.029 165.693C163.473 170.249 163.473 177.636 168.029 182.192L170.858 179.363C167.864 176.369 167.864 171.515 170.858 168.521L168.029 165.693ZM107.283 211.534C92.914 214.235 82.0424 226.846 82.0424 242H86.0424C86.0424 228.805 95.5091 217.818 108.022 215.466L107.283 211.534ZM113.042 212C111.325 212 109.647 211.84 108.022 211.534L107.283 215.466C109.15 215.817 111.076 216 113.042 216V212ZM140.042 185C140.042 199.912 127.954 212 113.042 212V216C130.163 216 144.042 202.121 144.042 185H140.042ZM113.042 158C127.954 158 140.042 170.088 140.042 185H144.042C144.042 167.879 130.163 154 113.042 154V158ZM108.022 158.466C109.647 158.16 111.325 158 113.042 158V154C111.076 154 109.15 154.183 107.283 154.534L108.022 158.466ZM82.0424 128C82.0424 143.154 92.914 155.765 107.283 158.466L108.022 154.534C95.5091 152.182 86.0424 141.195 86.0424 128H82.0424ZM113.042 97C95.9215 97 82.0424 110.879 82.0424 128H86.0424C86.0424 113.088 98.1307 101 113.042 101V97ZM143.508 122.24C140.807 107.872 128.196 97 113.042 97V101C126.237 101 137.225 110.467 139.577 122.979L143.508 122.24ZM143.042 128C143.042 126.283 143.202 124.605 143.508 122.979L139.577 122.24C139.226 124.108 139.042 126.034 139.042 128H143.042ZM170.042 155C155.131 155 143.042 142.912 143.042 128H139.042C139.042 145.121 152.922 159 170.042 159V155ZM197.042 128C197.042 142.912 184.954 155 170.042 155V159C187.163 159 201.042 145.121 201.042 128H197.042ZM196.577 122.979C196.882 124.605 197.042 126.283 197.042 128H201.042C201.042 126.034 200.859 124.108 200.508 122.24L196.577 122.979ZM227.042 97C211.888 97 199.278 107.872 196.577 122.24L200.508 122.979C202.86 110.467 213.848 101 227.042 101V97ZM258.042 128C258.042 110.879 244.163 97 227.042 97V101C241.954 101 254.042 113.088 254.042 128H258.042ZM232.802 158.466C247.171 155.765 258.042 143.154 258.042 128H254.042C254.042 141.195 244.576 152.182 232.063 154.534L232.802 158.466ZM227.042 158C228.76 158 230.438 158.16 232.063 158.466L232.802 154.534C230.934 154.183 229.009 154 227.042 154V158ZM200.042 185C200.042 170.088 212.131 158 227.042 158V154C209.922 154 196.042 167.879 196.042 185H200.042ZM227.042 212C212.131 212 200.042 199.912 200.042 185H196.042C196.042 202.121 209.922 216 227.042 216V212ZM232.063 211.534C230.438 211.84 228.76 212 227.042 212V216C229.009 216 230.934 215.817 232.802 215.466L232.063 211.534ZM255.508 229.706C251.485 220.402 243.034 213.458 232.802 211.534L232.063 215.466C240.964 217.139 248.331 223.186 251.837 231.294L255.508 229.706ZM250.367 232.5H253.673V228.5H250.367V232.5ZM231.993 218.51C239.28 220.036 245.359 224.876 248.574 231.386L252.16 229.614C248.412 222.027 241.327 216.378 232.813 214.595L231.993 218.51ZM227.042 219C228.979 219 230.881 218.838 232.735 218.525L232.07 214.58C230.435 214.856 228.755 215 227.042 215V219ZM193.042 185C193.042 203.778 208.265 219 227.042 219V215C210.474 215 197.042 201.569 197.042 185H193.042ZM227.042 151C208.265 151 193.042 166.222 193.042 185H197.042C197.042 168.431 210.474 155 227.042 155V151ZM232.735 151.475C230.881 151.162 228.979 151 227.042 151V155C228.755 155 230.435 155.144 232.07 155.42L232.735 151.475ZM251.042 128C251.042 139.555 242.872 149.211 231.993 151.49L232.813 155.405C245.508 152.746 255.042 141.485 255.042 128H251.042ZM227.042 104C240.297 104 251.042 114.745 251.042 128H255.042C255.042 112.536 242.506 100 227.042 100V104ZM203.552 123.05C205.831 112.17 215.488 104 227.042 104V100C213.557 100 202.297 109.534 199.637 122.23L203.552 123.05ZM204.042 128C204.042 126.063 203.88 124.161 203.567 122.307L199.623 122.973C199.899 124.608 200.042 126.287 200.042 128H204.042ZM170.042 162C188.82 162 204.042 146.778 204.042 128H200.042C200.042 144.569 186.611 158 170.042 158V162ZM136.042 128C136.042 146.778 151.265 162 170.042 162V158C153.474 158 140.042 144.569 140.042 128H136.042ZM136.518 122.307C136.205 124.161 136.042 126.063 136.042 128H140.042C140.042 126.287 140.186 124.608 140.462 122.973L136.518 122.307ZM113.042 104C124.597 104 134.253 112.17 136.532 123.05L140.447 122.23C137.788 109.534 126.527 100 113.042 100V104ZM89.0424 128C89.0424 114.745 99.7875 104 113.042 104V100C97.5784 100 85.0424 112.536 85.0424 128H89.0424ZM108.092 151.49C97.2124 149.211 89.0424 139.555 89.0424 128H85.0424C85.0424 141.485 94.5764 152.746 107.272 155.405L108.092 151.49ZM113.042 151C111.106 151 109.204 151.162 107.349 151.475L108.015 155.42C109.65 155.144 111.33 155 113.042 155V151ZM147.042 185C147.042 166.222 131.82 151 113.042 151V155C129.611 155 143.042 168.431 143.042 185H147.042ZM113.042 219C131.82 219 147.042 203.778 147.042 185H143.042C143.042 201.569 129.611 215 113.042 215V219ZM107.349 218.525C109.204 218.838 111.106 219 113.042 219V215C111.33 215 109.65 214.856 108.015 214.58L107.349 218.525ZM89.0424 242C89.0424 230.445 97.2124 220.789 108.092 218.51L107.272 214.595C94.5764 217.254 85.0424 228.515 85.0424 242H89.0424ZM113.042 266C99.7875 266 89.0424 255.255 89.0424 242H85.0424C85.0424 257.464 97.5784 270 113.042 270V266ZM136.447 247.34C134.022 258.025 124.458 266 113.042 266V270C126.366 270 137.518 260.693 140.348 248.225L136.447 247.34ZM136.042 243C136.042 244.723 136.171 246.419 136.42 248.079L140.376 247.486C140.156 246.022 140.042 244.524 140.042 243H136.042ZM170.042 209C151.265 209 136.042 224.222 136.042 243H140.042C140.042 226.431 153.474 213 170.042 213V209ZM204.042 243C204.042 224.222 188.82 209 170.042 209V213C186.611 213 200.042 226.431 200.042 243H204.042ZM203.665 248.079C203.914 246.419 204.042 244.723 204.042 243H200.042C200.042 244.524 199.929 246.022 199.709 247.486L203.665 248.079ZM227.042 266C215.627 266 206.063 258.025 203.637 247.34L199.737 248.225C202.567 260.693 213.719 270 227.042 270V266ZM249.006 251.692C245.279 260.123 236.845 266 227.042 266V270C238.486 270 248.321 263.136 252.664 253.308L249.006 251.692ZM254.083 250.5H250.835V254.5H254.083V250.5ZM227.042 273C240.208 273 251.452 264.794 255.947 253.224L252.219 251.776C248.301 261.858 238.503 269 227.042 269V273ZM196.677 248.268C199.576 262.384 212.067 273 227.042 273V269C214.004 269 203.12 259.756 200.595 247.463L196.677 248.268ZM197.042 243C197.042 244.546 196.913 246.06 196.664 247.533L200.608 248.199C200.894 246.507 201.042 244.77 201.042 243H197.042ZM170.042 216C184.954 216 197.042 228.088 197.042 243H201.042C201.042 225.879 187.163 212 170.042 212V216ZM143.042 243C143.042 228.088 155.131 216 170.042 216V212C152.922 212 139.042 225.879 139.042 243H143.042ZM143.421 247.533C143.172 246.06 143.042 244.546 143.042 243H139.042C139.042 244.77 139.191 246.507 139.477 248.199L143.421 247.533ZM113.042 273C128.017 273 140.508 262.384 143.408 248.268L139.49 247.463C136.965 259.756 126.081 269 113.042 269V273ZM82.0424 242C82.0424 259.121 95.9215 273 113.042 273V269C98.1307 269 86.0424 256.912 86.0424 242H82.0424Z" fill="#BCCEE1"/>
</svg>
