<svg width="513" height="481" viewBox="0 0 513 481" fill="none" xmlns="http://www.w3.org/2000/svg">
<path d="M110.023 467.519L110.027 467.534C108.457 468.323 106.902 468.127 105.493 467.01C104.03 465.849 103.042 463.858 103.487 461.329L103.488 461.322L130.048 309.962L131.159 303.632L126.506 299.199L13.778 191.815C13.7763 191.814 13.7746 191.812 13.773 191.81C12.1429 190.251 11.6001 187.985 12.2815 185.698C12.9579 183.427 14.4707 182.225 16.2196 181.979L16.2283 181.978L16.2371 181.977L172.973 159.705L179.175 158.823L181.998 153.231L251.884 14.7705C251.885 14.7693 251.885 14.7682 251.886 14.7671C252.926 12.7105 254.535 12 256.005 12C257.476 12 259.086 12.7113 260.126 14.7705L330.012 153.231L332.835 158.823L339.037 159.705L495.773 181.977L495.781 181.978L495.79 181.979C497.54 182.225 499.049 183.427 499.722 185.691C500.4 187.971 499.858 190.237 498.213 191.803L498.207 191.808L385.503 299.2L380.851 303.633L381.962 309.962L408.522 461.322L408.523 461.329C408.968 463.858 407.98 465.849 406.516 467.01C405.097 468.136 403.528 468.326 401.946 467.515L261.441 395.326L255.956 392.508L250.471 395.327L110.023 467.519Z" stroke="#F1C40F" stroke-width="24"/>
</svg>
