<svg width="512" height="480" viewBox="0 0 512 480" fill="none" xmlns="http://www.w3.org/2000/svg">
<path d="M171.286 147.799L241.17 9.34343C242.512 6.55812 244.609 4.20561 247.223 2.55375C249.836 0.901895 252.861 0.017064 255.953 0C261.808 0 267.664 3.10381 270.832 9.34343L340.716 147.799L497.442 170.07C501.349 170.684 504.924 172.627 507.564 175.57C510.205 178.514 511.749 182.279 511.937 186.229C512.16 188.858 511.787 191.505 510.845 193.97C509.904 196.436 508.417 198.657 506.497 200.468L393.768 307.853L420.327 459.204C422.823 473.379 408.807 484.482 396.456 478.147L255.953 405.959L115.513 478.147C114.044 478.91 112.47 479.449 110.842 479.747C99.8983 481.667 89.4669 471.619 91.6428 459.204L118.201 307.853L5.50401 200.468C3.75198 198.81 2.35936 196.81 1.41259 194.592C0.465828 192.374 -0.0148662 189.984 0.000350284 187.573C0.00201459 184.163 0.943056 180.819 2.72018 177.909C3.98087 175.799 5.69917 174 7.74829 172.643C9.79741 171.286 12.1251 170.407 14.5595 170.07L171.286 147.799V147.799ZM255.953 368.841C258.536 368.831 261.083 369.446 263.376 370.633L381.321 431.238L359.114 304.621C358.59 301.709 358.789 298.713 359.692 295.896C360.596 293.078 362.178 290.526 364.298 288.462L457.316 199.828L327.66 181.397C324.976 180.991 322.429 179.941 320.239 178.336C318.049 176.731 316.28 174.619 315.085 172.181L255.985 55.1326L255.953 55.2286V368.809V368.841Z" fill="#F1C40F"/>
</svg>
