<svg width="3662" height="1032" viewBox="0 0 3662 1032" fill="none" xmlns="http://www.w3.org/2000/svg">
<circle cx="516.571" cy="245.822" r="104.419" fill="#FCC63B"/>
<path fill-rule="evenodd" clip-rule="evenodd" d="M257.041 647.612C248.655 647.612 240.451 646.83 232.499 645.335C171.302 656.838 125 710.562 125 775.1C125 848.024 184.117 907.141 257.041 907.141C320.816 907.141 374.03 861.929 386.38 801.809C385.163 794.605 384.529 787.203 384.529 779.654C384.529 706.729 443.646 647.612 516.571 647.612C589.495 647.612 648.612 706.729 648.612 779.654C648.612 787.203 647.978 794.605 646.761 801.808C659.111 861.929 712.326 907.141 776.1 907.141C849.025 907.141 908.142 848.024 908.142 775.1C908.142 710.562 861.84 656.838 800.643 645.335C792.691 646.83 784.487 647.612 776.1 647.612C703.176 647.612 644.059 588.495 644.059 515.571C644.059 442.646 703.176 383.529 776.1 383.529C784.487 383.529 792.691 384.311 800.643 385.806C861.84 374.303 908.142 320.579 908.142 256.041C908.142 183.117 849.025 124 776.1 124C711.562 124 657.838 170.302 646.335 231.499C647.83 239.452 648.612 247.655 648.612 256.041C648.612 328.966 589.495 388.083 516.571 388.083C443.646 388.083 384.529 328.966 384.529 256.041C384.529 247.655 385.311 239.451 386.806 231.499C375.303 170.302 321.579 124 257.041 124C184.117 124 125 183.117 125 256.041C125 320.579 171.302 374.303 232.499 385.806C240.451 384.311 248.655 383.529 257.041 383.529C329.966 383.529 389.083 442.646 389.083 515.571C389.083 588.495 329.966 647.612 257.041 647.612Z" fill="url(#paint0_radial)"/>
<path fill-rule="evenodd" clip-rule="evenodd" d="M560.697 438.373C549.37 427.045 531.005 427.046 519.678 438.373C508.35 449.7 508.35 468.065 519.678 479.392L519.702 479.417L560.697 520.412L601.717 479.393L601.717 479.392C613.044 468.065 613.044 449.7 601.717 438.373C590.39 427.045 572.024 427.045 560.697 438.373C560.697 438.373 560.697 438.373 560.697 438.373Z" fill="#EF3138"/>
<path d="M1037.28 336.065H1109.04V424H1052.33C1037.06 424 1025.34 422.727 1017.18 420.182C1006.85 416.962 998.049 410.711 990.787 401.427C981.428 389.373 976.749 371.591 976.749 348.082C976.749 314.391 986.145 291.78 1004.94 280.25C1010.78 276.731 1017.29 274.26 1024.48 272.838C1031.67 271.415 1041.32 270.704 1053.45 270.704H1109.04V290.245H1055.36C1045.4 290.245 1038.4 290.619 1034.36 291.368C1030.39 292.042 1026.39 293.614 1022.34 296.085C1009.32 304.096 1002.8 320.792 1002.8 346.173C1002.8 356.131 1003.48 364.216 1004.83 370.431C1006.17 376.645 1008.53 382.335 1011.9 387.501C1016.17 394.09 1021.3 398.582 1027.29 400.978C1033.28 403.299 1042.63 404.459 1055.36 404.459H1084.56V355.606H1037.28V336.065ZM1155.86 312.032H1184.61C1193.82 312.032 1200.97 312.669 1206.06 313.941C1211.15 315.214 1215.45 317.423 1218.97 320.567C1222.34 323.637 1224.7 327.455 1226.05 332.022C1227.4 336.59 1228.07 343.141 1228.07 351.676V362.569H1207.07V351.676C1207.07 343.515 1205.65 337.975 1202.8 335.055C1200.03 332.135 1194.75 330.675 1186.97 330.675H1178.09V424H1155.86V312.032ZM1338.33 406.368V312.032H1360.57V424H1311.72C1304.08 424 1298.39 423.775 1294.65 423.326C1290.98 422.802 1287.42 421.829 1283.98 420.406C1276.79 417.486 1271.63 412.77 1268.48 406.256C1265.41 399.742 1263.88 390.383 1263.88 378.18V312.032H1286.11V377.394C1286.04 387.127 1287.12 393.865 1289.37 397.608C1292.89 403.448 1300.97 406.368 1313.63 406.368H1338.33ZM1410.75 312.032H1456.91C1468.59 312.032 1477.27 312.968 1482.96 314.84C1488.65 316.637 1493.97 320.193 1498.91 325.509C1507.75 335.242 1512.16 349.392 1512.16 367.96C1512.16 377.394 1510.63 386.266 1507.56 394.576C1504.56 402.812 1500.45 409.326 1495.21 414.117C1490.86 418.085 1486 420.743 1480.61 422.091C1475.22 423.364 1466.49 424 1454.44 424H1432.99V459.601H1410.75V312.032ZM1432.99 329.664V406.368H1454.44C1467.09 406.368 1475.78 403.897 1480.49 398.956C1486.26 392.966 1489.14 382.148 1489.14 366.5C1489.14 353.323 1486.45 343.889 1481.06 338.199C1475.74 332.509 1466.87 329.664 1454.44 329.664H1432.99ZM1605.02 310.797C1622.99 310.797 1636.95 315.963 1646.91 326.295C1656.27 335.953 1660.95 350.029 1660.95 368.521C1660.95 385.742 1656.2 399.368 1646.69 409.4C1636.58 419.957 1622.28 425.235 1603.79 425.235C1584.32 425.235 1569.57 419.845 1559.54 409.063C1550.93 399.929 1546.62 386.902 1546.62 369.981C1546.62 352.162 1551.45 337.862 1561.11 327.081C1570.69 316.375 1585.33 310.947 1605.02 310.797ZM1603.67 329.215C1592.74 329.215 1584.32 332.621 1578.41 339.435C1572.57 346.248 1569.65 355.943 1569.65 368.521C1569.65 380.501 1572.04 389.485 1576.83 395.475C1582.9 403.036 1591.7 406.817 1603.22 406.817C1626.36 406.817 1637.93 394.239 1637.93 369.083C1637.93 356.28 1634.97 346.472 1629.06 339.659C1623.22 332.846 1614.75 329.365 1603.67 329.215Z" fill="#fafafa"/>
<path d="M1009.99 598.297V654H985.509V500.704H1053.23C1065.06 500.704 1073.86 501.752 1079.62 503.849C1089.43 507.368 1096.84 513.544 1101.86 522.379C1105.9 529.641 1107.92 538.513 1107.92 548.995C1107.92 566.365 1102.57 579.542 1091.86 588.526C1087.67 592.045 1082.24 594.553 1075.58 596.051C1068.91 597.548 1059.93 598.297 1048.62 598.297H1009.99ZM1009.99 578.756H1050.31C1061.76 578.756 1069.7 576.547 1074.12 572.13C1079.21 567.114 1081.75 559.252 1081.75 548.546C1081.75 539.187 1079.17 531.85 1074 526.534C1069.96 522.341 1061.73 520.245 1049.3 520.245H1009.99V578.756ZM1172.82 588.976V654H1148.33V500.704H1218.19C1238.33 500.704 1252.4 503.437 1260.41 508.902C1265.73 512.571 1269.88 517.438 1272.88 523.502C1275.87 529.492 1277.37 536.043 1277.37 543.155C1277.37 556.407 1273.1 566.702 1264.57 574.039C1259.85 578.007 1253.52 581.114 1245.59 583.36C1255.92 587.927 1262.96 593.355 1266.7 599.645C1270.45 605.934 1272.8 616.266 1273.78 630.641C1274.38 639.999 1274.83 645.615 1275.12 647.486C1275.5 649.358 1276.4 651.529 1277.82 654H1252.78C1251.88 652.353 1251.32 650.743 1251.09 649.171C1250.87 647.524 1250.31 641.759 1249.41 631.876C1247.91 615.629 1243.42 604.436 1235.93 598.297C1228.44 592.083 1215.57 588.976 1197.3 588.976H1172.82ZM1172.82 569.435H1216.61C1229.57 569.435 1238.14 567.9 1242.33 564.83C1248.32 560.338 1251.32 553.674 1251.32 544.84C1251.32 534.658 1248.06 527.582 1241.55 523.614C1237.88 521.368 1229.57 520.245 1216.61 520.245H1172.82V569.435ZM1431.55 500.704V520.245H1386.85C1378.61 520.245 1372.21 520.807 1367.65 521.93C1363.15 523.053 1359.11 525.037 1355.52 527.882C1350.58 531.85 1346.87 536.866 1344.4 542.931C1342 548.995 1340.51 557.006 1339.91 566.964H1431.55V586.505H1339.91C1339.68 597.511 1342.12 607.506 1347.21 616.49C1351.02 623.079 1355.82 627.721 1361.58 630.416C1367.35 633.111 1375.36 634.459 1385.61 634.459H1431.55V654H1381.12C1368.24 654 1357.8 652.54 1349.79 649.62C1335.41 644.379 1324.9 632.962 1318.23 615.367C1314.64 605.934 1312.84 594.254 1312.84 580.328C1312.84 561.835 1315.76 546.861 1321.6 535.406C1328.11 522.753 1336.39 513.806 1346.42 508.565C1356.45 503.325 1370.42 500.704 1388.31 500.704H1431.55ZM1621.66 500.704L1556.3 654H1527.21L1461.4 500.704H1489.7L1542.15 631.09L1595.27 500.704H1621.66ZM1767.3 500.704V520.245H1722.6C1714.37 520.245 1707.97 520.807 1703.4 521.93C1698.91 523.053 1694.87 525.037 1691.27 527.882C1686.33 531.85 1682.62 536.866 1680.15 542.931C1677.76 548.995 1676.26 557.006 1675.66 566.964H1767.3V586.505H1675.66C1675.44 597.511 1677.87 607.506 1682.96 616.49C1686.78 623.079 1691.57 627.721 1697.34 630.416C1703.1 633.111 1711.11 634.459 1721.37 634.459H1767.3V654H1716.88C1704 654 1693.56 652.54 1685.54 649.62C1671.17 644.379 1660.65 632.962 1653.99 615.367C1650.39 605.934 1648.6 594.254 1648.6 580.328C1648.6 561.835 1651.52 546.861 1657.36 535.406C1663.87 522.753 1672.14 513.806 1682.18 508.565C1692.21 503.325 1706.17 500.704 1724.06 500.704H1767.3ZM1836.69 531.7V654H1812.88V500.704H1842.08L1920.24 623.341V500.704H1944.05V654H1915.64L1836.69 531.7ZM1995.47 654V500.704H2019.95V654H1995.47ZM2095.85 588.976V654H2071.37V500.704H2141.22C2161.36 500.704 2175.44 503.437 2183.45 508.902C2188.77 512.571 2192.92 517.438 2195.92 523.502C2198.91 529.492 2200.41 536.043 2200.41 543.155C2200.41 556.407 2196.14 566.702 2187.6 574.039C2182.89 578.007 2176.56 581.114 2168.63 583.36C2178.96 587.927 2186 593.355 2189.74 599.645C2193.48 605.934 2195.84 616.266 2196.81 630.641C2197.41 639.999 2197.86 645.615 2198.16 647.486C2198.54 649.358 2199.43 651.529 2200.86 654H2175.81C2174.91 652.353 2174.35 650.743 2174.13 649.171C2173.9 647.524 2173.34 641.759 2172.44 631.876C2170.95 615.629 2166.45 604.436 2158.97 598.297C2151.48 592.083 2138.6 588.976 2120.33 588.976H2095.85ZM2095.85 569.435H2139.65C2152.6 569.435 2161.18 567.9 2165.37 564.83C2171.36 560.338 2174.35 553.674 2174.35 544.84C2174.35 534.658 2171.1 527.582 2164.58 523.614C2160.91 521.368 2152.6 520.245 2139.65 520.245H2095.85V569.435ZM2430.48 500.704V520.245H2385.79C2377.55 520.245 2371.15 520.807 2366.58 521.93C2362.09 523.053 2358.05 525.037 2354.45 527.882C2349.51 531.85 2345.81 536.866 2343.34 542.931C2340.94 548.995 2339.44 557.006 2338.84 566.964H2430.48V586.505H2338.84C2338.62 597.511 2341.05 607.506 2346.14 616.49C2349.96 623.079 2354.75 627.721 2360.52 630.416C2366.28 633.111 2374.29 634.459 2384.55 634.459H2430.48V654H2380.06C2367.18 654 2356.74 652.54 2348.73 649.62C2334.35 644.379 2323.83 632.962 2317.17 615.367C2313.57 605.934 2311.78 594.254 2311.78 580.328C2311.78 561.835 2314.7 546.861 2320.54 535.406C2327.05 522.753 2335.32 513.806 2345.36 508.565C2355.39 503.325 2369.35 500.704 2387.25 500.704H2430.48ZM2520.87 575.387L2470 500.704H2499.31L2537.04 557.081L2579.38 500.704H2608.69L2551.31 575.387L2612.96 654H2583.2L2535.81 592.794L2490.44 654H2460.79L2520.87 575.387ZM2673.48 598.297V654H2648.99V500.704H2716.71C2728.54 500.704 2737.34 501.752 2743.1 503.849C2752.91 507.368 2760.32 513.544 2765.34 522.379C2769.38 529.641 2771.4 538.513 2771.4 548.995C2771.4 566.365 2766.05 579.542 2755.35 588.526C2751.15 592.045 2745.72 594.553 2739.06 596.051C2732.4 597.548 2723.41 598.297 2712.11 598.297H2673.48ZM2673.48 578.756H2713.79C2725.25 578.756 2733.18 576.547 2737.6 572.13C2742.69 567.114 2745.24 559.252 2745.24 548.546C2745.24 539.187 2742.65 531.85 2737.49 526.534C2733.45 522.341 2725.21 520.245 2712.78 520.245H2673.48V578.756ZM2836.3 588.976V654H2811.82V500.704H2881.67C2901.81 500.704 2915.89 503.437 2923.9 508.902C2929.21 512.571 2933.37 517.438 2936.36 523.502C2939.36 529.492 2940.85 536.043 2940.85 543.155C2940.85 556.407 2936.59 566.702 2928.05 574.039C2923.34 578.007 2917.01 581.114 2909.07 583.36C2919.4 587.927 2926.44 593.355 2930.19 599.645C2933.93 605.934 2936.29 616.266 2937.26 630.641C2937.86 639.999 2938.31 645.615 2938.61 647.486C2938.98 649.358 2939.88 651.529 2941.3 654H2916.26C2915.36 652.353 2914.8 650.743 2914.58 649.171C2914.35 647.524 2913.79 641.759 2912.89 631.876C2911.39 615.629 2906.9 604.436 2899.41 598.297C2891.93 592.083 2879.05 588.976 2860.78 588.976H2836.3ZM2836.3 569.435H2880.1C2893.05 569.435 2901.62 567.9 2905.82 564.83C2911.81 560.338 2914.8 553.674 2914.8 544.84C2914.8 534.658 2911.54 527.582 2905.03 523.614C2901.36 521.368 2893.05 520.245 2880.1 520.245H2836.3V569.435ZM3095.03 500.704V520.245H3050.33C3042.1 520.245 3035.7 520.807 3031.13 521.93C3026.64 523.053 3022.59 525.037 3019 527.882C3014.06 531.85 3010.35 536.866 3007.88 542.931C3005.49 548.995 3003.99 557.006 3003.39 566.964H3095.03V586.505H3003.39C3003.17 597.511 3005.6 607.506 3010.69 616.49C3014.51 623.079 3019.3 627.721 3025.07 630.416C3030.83 633.111 3038.84 634.459 3049.1 634.459H3095.03V654H3044.61C3031.73 654 3021.28 652.54 3013.27 649.62C2998.9 644.379 2988.38 632.962 2981.72 615.367C2978.12 605.934 2976.32 594.254 2976.32 580.328C2976.32 561.835 2979.24 546.861 2985.08 535.406C2991.6 522.753 2999.87 513.806 3009.9 508.565C3019.94 503.325 3033.9 500.704 3051.79 500.704H3095.03ZM3137.91 654V634.459H3204.17C3214.36 634.459 3221.66 633.186 3226.07 630.641C3232.81 626.747 3236.18 620.121 3236.18 610.763C3236.18 598.858 3231.8 591.484 3223.04 588.639C3219.15 587.366 3211.32 586.729 3199.57 586.729H3186.77C3169.1 586.729 3156.44 584.296 3148.81 579.43C3137.88 572.542 3132.41 561.648 3132.41 546.749C3132.41 536.941 3134.92 528.256 3139.94 520.694C3144.8 513.282 3151.09 508.116 3158.8 505.196C3166.59 502.201 3177.59 500.704 3191.82 500.704H3254.94V520.245H3191.82C3185.16 520.245 3180.03 520.582 3176.43 521.256C3172.92 521.855 3169.85 522.978 3167.23 524.625C3161.39 528.368 3158.47 534.583 3158.47 543.268C3158.47 550.904 3161.01 556.37 3166.1 559.664C3171.27 562.958 3179.84 564.605 3191.82 564.605H3201.03C3214.13 564.605 3223.9 565.204 3230.34 566.402C3236.78 567.6 3242.09 569.771 3246.29 572.916C3251.3 576.734 3255.2 581.9 3257.97 588.414C3260.81 594.928 3262.23 602.115 3262.23 609.977C3262.23 628.095 3255.16 640.823 3241.01 648.16C3236.59 650.406 3231.58 651.941 3225.96 652.765C3220.42 653.588 3212.11 654 3201.03 654H3137.91ZM3302.76 654V634.459H3369.02C3379.2 634.459 3386.5 633.186 3390.92 630.641C3397.66 626.747 3401.03 620.121 3401.03 610.763C3401.03 598.858 3396.65 591.484 3387.89 588.639C3383.99 587.366 3376.17 586.729 3364.41 586.729H3351.61C3333.94 586.729 3321.29 584.296 3313.65 579.43C3302.72 572.542 3297.26 561.648 3297.26 546.749C3297.26 536.941 3299.76 528.256 3304.78 520.694C3309.65 513.282 3315.94 508.116 3323.65 505.196C3331.43 502.201 3342.44 500.704 3356.67 500.704H3419.78V520.245H3356.67C3350 520.245 3344.87 520.582 3341.28 521.256C3337.76 521.855 3334.69 522.978 3332.07 524.625C3326.23 528.368 3323.31 534.583 3323.31 543.268C3323.31 550.904 3325.86 556.37 3330.95 559.664C3336.11 562.958 3344.69 564.605 3356.67 564.605H3365.87C3378.98 564.605 3388.75 565.204 3395.19 566.402C3401.62 567.6 3406.94 569.771 3411.13 572.916C3416.15 576.734 3420.04 581.9 3422.81 588.414C3425.66 594.928 3427.08 602.115 3427.08 609.977C3427.08 628.095 3420 640.823 3405.85 648.16C3401.44 650.406 3396.42 651.941 3390.81 652.765C3385.27 653.588 3376.95 654 3365.87 654H3302.76Z" fill="#fafafa"/>
<path d="M1009.99 598.297V597.297H1008.99V598.297H1009.99ZM1009.99 654V655H1010.99V654H1009.99ZM985.509 654H984.509V655H985.509V654ZM985.509 500.704V499.704H984.509V500.704H985.509ZM1079.62 503.849L1079.28 504.788L1079.28 504.79L1079.62 503.849ZM1101.86 522.379L1102.73 521.892L1102.73 521.885L1101.86 522.379ZM1091.86 588.526L1091.22 587.76L1091.22 587.76L1091.86 588.526ZM1075.58 596.051L1075.8 597.026L1075.58 596.051ZM1009.99 578.756H1008.99V579.756H1009.99V578.756ZM1074.12 572.13L1073.42 571.418L1073.41 571.423L1074.12 572.13ZM1074 526.534L1073.29 527.228L1073.29 527.231L1074 526.534ZM1009.99 520.245V519.245H1008.99V520.245H1009.99ZM1008.99 598.297V654H1010.99V598.297H1008.99ZM1009.99 653H985.509V655H1009.99V653ZM986.509 654V500.704H984.509V654H986.509ZM985.509 501.704H1053.23V499.704H985.509V501.704ZM1053.23 501.704C1065.03 501.704 1073.68 502.754 1079.28 504.788L1079.96 502.909C1074.03 500.751 1065.09 499.704 1053.23 499.704V501.704ZM1079.28 504.79C1088.87 508.23 1096.09 514.252 1100.99 522.873L1102.73 521.885C1097.59 512.837 1089.98 506.505 1079.96 502.907L1079.28 504.79ZM1100.98 522.865C1104.92 529.945 1106.92 538.64 1106.92 548.995H1108.92C1108.92 538.387 1106.87 529.338 1102.73 521.893L1100.98 522.865ZM1106.92 548.995C1106.92 566.148 1101.64 579.011 1091.22 587.76L1092.5 589.292C1103.49 580.073 1108.92 566.582 1108.92 548.995H1106.92ZM1091.22 587.76C1087.17 591.154 1081.9 593.604 1075.36 595.075L1075.8 597.026C1082.58 595.503 1088.16 592.936 1092.5 589.292L1091.22 587.76ZM1075.36 595.075C1068.8 596.549 1059.9 597.297 1048.62 597.297V599.297C1059.96 599.297 1069.03 598.547 1075.8 597.026L1075.36 595.075ZM1048.62 597.297H1009.99V599.297H1048.62V597.297ZM1009.99 579.756H1050.31V577.756H1009.99V579.756ZM1050.31 579.756C1061.83 579.756 1070.11 577.547 1074.82 572.837L1073.41 571.423C1069.29 575.547 1061.7 577.756 1050.31 577.756V579.756ZM1074.82 572.842C1080.18 567.562 1082.75 559.388 1082.75 548.546H1080.75C1080.75 559.117 1078.24 566.665 1073.42 571.418L1074.82 572.842ZM1082.75 548.546C1082.75 538.999 1080.11 531.385 1074.72 525.837L1073.29 527.231C1078.23 532.314 1080.75 539.376 1080.75 548.546H1082.75ZM1074.72 525.84C1072.53 523.562 1069.26 521.923 1065.04 520.848C1060.82 519.773 1055.56 519.245 1049.3 519.245V521.245C1055.46 521.245 1060.54 521.766 1064.55 522.786C1068.56 523.809 1071.44 525.314 1073.29 527.228L1074.72 525.84ZM1049.3 519.245H1009.99V521.245H1049.3V519.245ZM1008.99 520.245V578.756H1010.99V520.245H1008.99ZM1172.82 588.976V587.976H1171.82V588.976H1172.82ZM1172.82 654V655H1173.82V654H1172.82ZM1148.33 654H1147.33V655H1148.33V654ZM1148.33 500.704V499.704H1147.33V500.704H1148.33ZM1260.41 508.902L1260.98 508.079L1260.98 508.076L1260.41 508.902ZM1272.88 523.502L1271.98 523.945L1271.98 523.949L1272.88 523.502ZM1264.57 574.039L1265.21 574.804L1265.22 574.797L1264.57 574.039ZM1245.59 583.36L1245.32 582.398L1242.65 583.154L1245.18 584.275L1245.59 583.36ZM1273.78 630.641L1274.77 630.577L1274.77 630.573L1273.78 630.641ZM1275.12 647.486L1274.14 647.644L1274.14 647.663L1274.14 647.682L1275.12 647.486ZM1277.82 654V655H1279.55L1278.69 653.501L1277.82 654ZM1252.78 654L1251.9 654.479L1252.18 655H1252.78V654ZM1251.09 649.171L1250.1 649.306L1250.1 649.312L1251.09 649.171ZM1249.41 631.876L1250.4 631.785L1250.4 631.784L1249.41 631.876ZM1235.93 598.297L1235.29 599.066L1235.3 599.07L1235.93 598.297ZM1172.82 569.435H1171.82V570.435H1172.82V569.435ZM1242.33 564.83L1242.92 565.637L1242.93 565.63L1242.33 564.83ZM1241.55 523.614L1241.02 524.467L1241.03 524.468L1241.55 523.614ZM1172.82 520.245V519.245H1171.82V520.245H1172.82ZM1171.82 588.976V654H1173.82V588.976H1171.82ZM1172.82 653H1148.33V655H1172.82V653ZM1149.33 654V500.704H1147.33V654H1149.33ZM1148.33 501.704H1218.19V499.704H1148.33V501.704ZM1218.19 501.704C1238.3 501.704 1252.11 504.446 1259.85 509.728L1260.98 508.076C1252.7 502.428 1238.35 499.704 1218.19 499.704V501.704ZM1259.84 509.725C1265.01 513.293 1269.06 518.025 1271.98 523.945L1273.78 523.059C1270.71 516.85 1266.44 511.849 1260.98 508.079L1259.84 509.725ZM1271.98 523.949C1274.91 529.791 1276.37 536.188 1276.37 543.155H1278.37C1278.37 535.897 1276.84 529.192 1273.77 523.055L1271.98 523.949ZM1276.37 543.155C1276.37 556.173 1272.19 566.168 1263.92 573.281L1265.22 574.797C1274.02 567.236 1278.37 556.642 1278.37 543.155H1276.37ZM1263.92 573.274C1259.35 577.125 1253.16 580.178 1245.32 582.398L1245.86 584.323C1253.89 582.05 1260.36 578.889 1265.21 574.804L1263.92 573.274ZM1245.18 584.275C1255.42 588.801 1262.25 594.118 1265.84 600.156L1267.56 599.133C1263.67 592.593 1256.42 587.054 1245.99 582.446L1245.18 584.275ZM1265.84 600.156C1269.46 606.233 1271.81 616.366 1272.78 630.708L1274.77 630.573C1273.8 616.165 1271.43 605.634 1267.56 599.133L1265.84 600.156ZM1272.78 630.704C1273.38 640.039 1273.83 645.714 1274.14 647.644L1276.11 647.328C1275.82 645.515 1275.38 639.96 1274.77 630.577L1272.78 630.704ZM1274.14 647.682C1274.55 649.699 1275.5 651.976 1276.95 654.499L1278.69 653.501C1277.29 651.083 1276.45 649.017 1276.11 647.29L1274.14 647.682ZM1277.82 653H1252.78V655H1277.82V653ZM1253.65 653.521C1252.8 651.96 1252.29 650.464 1252.08 649.029L1250.1 649.312C1250.35 651.022 1250.95 652.745 1251.9 654.479L1253.65 653.521ZM1252.08 649.036C1251.86 647.417 1251.3 641.682 1250.4 631.785L1248.41 631.967C1249.31 641.835 1249.87 647.63 1250.1 649.306L1252.08 649.036ZM1250.4 631.784C1248.9 615.443 1244.36 603.917 1236.56 597.524L1235.3 599.07C1242.47 604.955 1246.92 615.815 1248.41 631.968L1250.4 631.784ZM1236.57 597.527C1228.8 591.08 1215.62 587.976 1197.3 587.976V589.976C1215.51 589.976 1228.09 593.085 1235.29 599.066L1236.57 597.527ZM1197.3 587.976H1172.82V589.976H1197.3V587.976ZM1172.82 570.435H1216.61V568.435H1172.82V570.435ZM1216.61 570.435C1223.12 570.435 1228.57 570.049 1232.93 569.268C1237.28 568.489 1240.65 567.303 1242.92 565.637L1241.74 564.023C1239.82 565.427 1236.81 566.543 1232.58 567.299C1228.37 568.052 1223.06 568.435 1216.61 568.435V570.435ZM1242.93 565.63C1249.22 560.914 1252.32 553.925 1252.32 544.84H1250.32C1250.32 553.424 1247.42 559.762 1241.73 564.03L1242.93 565.63ZM1252.32 544.84C1252.32 534.44 1248.97 526.969 1242.07 522.76L1241.03 524.468C1247.14 528.196 1250.32 534.875 1250.32 544.84H1252.32ZM1242.07 522.761C1240.05 521.525 1236.88 520.662 1232.7 520.096C1228.48 519.527 1223.11 519.245 1216.61 519.245V521.245C1223.07 521.245 1228.33 521.525 1232.43 522.078C1236.55 522.636 1239.37 523.457 1241.02 524.467L1242.07 522.761ZM1216.61 519.245H1172.82V521.245H1216.61V519.245ZM1171.82 520.245V569.435H1173.82V520.245H1171.82ZM1431.55 500.704H1432.55V499.704H1431.55V500.704ZM1431.55 520.245V521.245H1432.55V520.245H1431.55ZM1367.65 521.93L1367.41 520.959L1367.4 520.96L1367.65 521.93ZM1355.52 527.882L1354.9 527.098L1354.89 527.102L1355.52 527.882ZM1344.4 542.931L1343.47 542.553L1343.47 542.563L1344.4 542.931ZM1339.91 566.964L1338.91 566.904L1338.84 567.964H1339.91V566.964ZM1431.55 566.964H1432.55V565.964H1431.55V566.964ZM1431.55 586.505V587.505H1432.55V586.505H1431.55ZM1339.91 586.505V585.505H1338.93L1338.91 586.484L1339.91 586.505ZM1347.21 616.49L1346.34 616.983L1346.34 616.992L1347.21 616.49ZM1361.58 630.416L1361.16 631.322L1361.58 630.416ZM1431.55 634.459H1432.55V633.459H1431.55V634.459ZM1431.55 654V655H1432.55V654H1431.55ZM1349.79 649.62L1349.45 650.56L1349.45 650.56L1349.79 649.62ZM1318.23 615.367L1319.17 615.013L1319.17 615.011L1318.23 615.367ZM1321.6 535.406L1320.71 534.949L1320.71 534.952L1321.6 535.406ZM1430.55 500.704V520.245H1432.55V500.704H1430.55ZM1431.55 519.245H1386.85V521.245H1431.55V519.245ZM1386.85 519.245C1378.58 519.245 1372.09 519.807 1367.41 520.959L1367.88 522.901C1372.34 521.806 1378.64 521.245 1386.85 521.245V519.245ZM1367.4 520.96C1362.77 522.117 1358.6 524.164 1354.9 527.098L1356.14 528.666C1359.62 525.91 1363.53 523.989 1367.89 522.9L1367.4 520.96ZM1354.89 527.102C1349.81 531.18 1346.01 536.337 1343.47 542.553L1345.32 543.308C1347.73 537.396 1351.34 532.52 1356.14 528.662L1354.89 527.102ZM1343.47 542.563C1341.02 548.763 1339.51 556.89 1338.91 566.904L1340.9 567.024C1341.5 557.122 1342.99 549.227 1345.33 543.298L1343.47 542.563ZM1339.91 567.964H1431.55V565.964H1339.91V567.964ZM1430.55 566.964V586.505H1432.55V566.964H1430.55ZM1431.55 585.505H1339.91V587.505H1431.55V585.505ZM1338.91 586.484C1338.68 597.658 1341.15 607.832 1346.34 616.983L1348.08 615.997C1343.08 607.18 1340.69 597.364 1340.91 586.525L1338.91 586.484ZM1346.34 616.992C1350.24 623.722 1355.17 628.524 1361.16 631.322L1362 629.51C1356.46 626.917 1351.81 622.436 1348.07 615.989L1346.34 616.992ZM1361.16 631.322C1367.11 634.106 1375.29 635.459 1385.61 635.459V633.459C1375.42 633.459 1367.58 632.117 1362 629.51L1361.16 631.322ZM1385.61 635.459H1431.55V633.459H1385.61V635.459ZM1430.55 634.459V654H1432.55V634.459H1430.55ZM1431.55 653H1381.12V655H1431.55V653ZM1381.12 653C1368.31 653 1357.99 651.546 1350.13 648.681L1349.45 650.56C1357.61 653.535 1368.18 655 1381.12 655V653ZM1350.13 648.681C1336.09 643.562 1325.75 632.403 1319.17 615.013L1317.3 615.721C1324.04 633.52 1334.74 645.197 1349.45 650.56L1350.13 648.681ZM1319.17 615.011C1315.63 605.725 1313.84 594.175 1313.84 580.328H1311.84C1311.84 594.333 1313.65 606.142 1317.3 615.723L1319.17 615.011ZM1313.84 580.328C1313.84 561.929 1316.75 547.127 1322.49 535.86L1320.71 534.952C1314.77 546.596 1311.84 561.742 1311.84 580.328H1313.84ZM1322.49 535.864C1328.93 523.347 1337.08 514.575 1346.88 509.452L1345.96 507.679C1335.7 513.038 1327.3 522.16 1320.71 534.949L1322.49 535.864ZM1346.88 509.452C1356.71 504.317 1370.49 501.704 1388.31 501.704V499.704C1370.34 499.704 1356.19 502.332 1345.96 507.679L1346.88 509.452ZM1388.31 501.704H1431.55V499.704H1388.31V501.704ZM1621.66 500.704L1622.58 501.096L1623.17 499.704H1621.66V500.704ZM1556.3 654V655H1556.96L1557.22 654.392L1556.3 654ZM1527.21 654L1526.29 654.394L1526.55 655H1527.21V654ZM1461.4 500.704V499.704H1459.88L1460.48 501.099L1461.4 500.704ZM1489.7 500.704L1490.63 500.331L1490.38 499.704H1489.7V500.704ZM1542.15 631.09L1541.22 631.463L1542.14 633.755L1543.08 631.467L1542.15 631.09ZM1595.27 500.704V499.704H1594.6L1594.34 500.327L1595.27 500.704ZM1620.74 500.312L1555.38 653.608L1557.22 654.392L1622.58 501.096L1620.74 500.312ZM1556.3 653H1527.21V655H1556.3V653ZM1528.13 653.606L1462.32 500.31L1460.48 501.099L1526.29 654.394L1528.13 653.606ZM1461.4 501.704H1489.7V499.704H1461.4V501.704ZM1488.78 501.077L1541.22 631.463L1543.08 630.717L1490.63 500.331L1488.78 501.077ZM1543.08 631.467L1596.2 501.081L1594.34 500.327L1541.22 630.713L1543.08 631.467ZM1595.27 501.704H1621.66V499.704H1595.27V501.704ZM1767.3 500.704H1768.3V499.704H1767.3V500.704ZM1767.3 520.245V521.245H1768.3V520.245H1767.3ZM1703.4 521.93L1703.16 520.959L1703.16 520.96L1703.4 521.93ZM1691.27 527.882L1690.65 527.098L1690.65 527.102L1691.27 527.882ZM1680.15 542.931L1679.23 542.553L1679.22 542.563L1680.15 542.931ZM1675.66 566.964L1674.66 566.904L1674.6 567.964H1675.66V566.964ZM1767.3 566.964H1768.3V565.964H1767.3V566.964ZM1767.3 586.505V587.505H1768.3V586.505H1767.3ZM1675.66 586.505V585.505H1674.68L1674.66 586.484L1675.66 586.505ZM1682.96 616.49L1682.09 616.983L1682.1 616.992L1682.96 616.49ZM1697.34 630.416L1696.91 631.322L1697.34 630.416ZM1767.3 634.459H1768.3V633.459H1767.3V634.459ZM1767.3 654V655H1768.3V654H1767.3ZM1685.54 649.62L1685.2 650.56L1685.2 650.56L1685.54 649.62ZM1653.99 615.367L1654.92 615.013L1654.92 615.011L1653.99 615.367ZM1657.36 535.406L1656.47 534.949L1656.46 534.952L1657.36 535.406ZM1766.3 500.704V520.245H1768.3V500.704H1766.3ZM1767.3 519.245H1722.6V521.245H1767.3V519.245ZM1722.6 519.245C1714.34 519.245 1707.84 519.807 1703.16 520.959L1703.64 522.901C1708.09 521.806 1714.4 521.245 1722.6 521.245V519.245ZM1703.16 520.96C1698.53 522.117 1694.36 524.164 1690.65 527.098L1691.89 528.666C1695.37 525.91 1699.29 523.989 1703.64 522.9L1703.16 520.96ZM1690.65 527.102C1685.57 531.18 1681.76 536.337 1679.23 542.553L1681.08 543.308C1683.49 537.396 1687.09 532.52 1691.9 528.662L1690.65 527.102ZM1679.22 542.563C1676.77 548.763 1675.27 556.89 1674.66 566.904L1676.66 567.024C1677.26 557.122 1678.74 549.227 1681.08 543.298L1679.22 542.563ZM1675.66 567.964H1767.3V565.964H1675.66V567.964ZM1766.3 566.964V586.505H1768.3V566.964H1766.3ZM1767.3 585.505H1675.66V587.505H1767.3V585.505ZM1674.66 586.484C1674.43 597.658 1676.91 607.832 1682.09 616.983L1683.83 615.997C1678.83 607.18 1676.44 597.364 1676.66 586.525L1674.66 586.484ZM1682.1 616.992C1686 623.722 1690.93 628.524 1696.91 631.322L1697.76 629.51C1692.21 626.917 1687.56 622.436 1683.83 615.989L1682.1 616.992ZM1696.91 631.322C1702.87 634.106 1711.05 635.459 1721.37 635.459V633.459C1711.18 633.459 1703.34 632.117 1697.76 629.51L1696.91 631.322ZM1721.37 635.459H1767.3V633.459H1721.37V635.459ZM1766.3 634.459V654H1768.3V634.459H1766.3ZM1767.3 653H1716.88V655H1767.3V653ZM1716.88 653C1704.06 653 1693.75 651.546 1685.89 648.681L1685.2 650.56C1693.36 653.535 1703.94 655 1716.88 655V653ZM1685.89 648.681C1671.85 643.562 1661.51 632.403 1654.92 615.013L1653.05 615.721C1659.79 633.52 1670.49 645.197 1685.2 650.56L1685.89 648.681ZM1654.92 615.011C1651.38 605.725 1649.6 594.175 1649.6 580.328H1647.6C1647.6 594.333 1649.4 606.142 1653.05 615.723L1654.92 615.011ZM1649.6 580.328C1649.6 561.929 1652.5 547.127 1658.25 535.86L1656.46 534.952C1650.53 546.596 1647.6 561.742 1647.6 580.328H1649.6ZM1658.24 535.864C1664.69 523.347 1672.83 514.575 1682.64 509.452L1681.71 507.679C1671.45 513.038 1663.05 522.16 1656.47 534.949L1658.24 535.864ZM1682.64 509.452C1692.47 504.317 1706.25 501.704 1724.06 501.704V499.704C1706.09 499.704 1691.95 502.332 1681.71 507.679L1682.64 509.452ZM1724.06 501.704H1767.3V499.704H1724.06V501.704ZM1836.69 531.7L1837.53 531.158L1835.69 528.307V531.7H1836.69ZM1836.69 654V655H1837.69V654H1836.69ZM1812.88 654H1811.88V655H1812.88V654ZM1812.88 500.704V499.704H1811.88V500.704H1812.88ZM1842.08 500.704L1842.92 500.167L1842.63 499.704H1842.08V500.704ZM1920.24 623.341L1919.4 623.878L1921.24 626.77V623.341H1920.24ZM1920.24 500.704V499.704H1919.24V500.704H1920.24ZM1944.05 500.704H1945.05V499.704H1944.05V500.704ZM1944.05 654V655H1945.05V654H1944.05ZM1915.64 654L1914.8 654.542L1915.09 655H1915.64V654ZM1835.69 531.7V654H1837.69V531.7H1835.69ZM1836.69 653H1812.88V655H1836.69V653ZM1813.88 654V500.704H1811.88V654H1813.88ZM1812.88 501.704H1842.08V499.704H1812.88V501.704ZM1841.24 501.242L1919.4 623.878L1921.09 622.803L1842.92 500.167L1841.24 501.242ZM1921.24 623.341V500.704H1919.24V623.341H1921.24ZM1920.24 501.704H1944.05V499.704H1920.24V501.704ZM1943.05 500.704V654H1945.05V500.704H1943.05ZM1944.05 653H1915.64V655H1944.05V653ZM1916.48 653.458L1837.53 531.158L1835.85 532.243L1914.8 654.542L1916.48 653.458ZM1995.47 654H1994.47V655H1995.47V654ZM1995.47 500.704V499.704H1994.47V500.704H1995.47ZM2019.95 500.704H2020.95V499.704H2019.95V500.704ZM2019.95 654V655H2020.95V654H2019.95ZM1996.47 654V500.704H1994.47V654H1996.47ZM1995.47 501.704H2019.95V499.704H1995.47V501.704ZM2018.95 500.704V654H2020.95V500.704H2018.95ZM2019.95 653H1995.47V655H2019.95V653ZM2095.85 588.976V587.976H2094.85V588.976H2095.85ZM2095.85 654V655H2096.85V654H2095.85ZM2071.37 654H2070.37V655H2071.37V654ZM2071.37 500.704V499.704H2070.37V500.704H2071.37ZM2183.45 508.902L2184.02 508.079L2184.01 508.076L2183.45 508.902ZM2195.92 523.502L2195.02 523.945L2195.02 523.949L2195.92 523.502ZM2187.6 574.039L2188.25 574.804L2188.26 574.797L2187.6 574.039ZM2168.63 583.36L2168.35 582.398L2165.68 583.154L2168.22 584.275L2168.63 583.36ZM2196.81 630.641L2197.81 630.577L2197.81 630.573L2196.81 630.641ZM2198.16 647.486L2197.17 647.644L2197.18 647.663L2197.18 647.682L2198.16 647.486ZM2200.86 654V655H2202.59L2201.72 653.501L2200.86 654ZM2175.81 654L2174.93 654.479L2175.22 655H2175.81V654ZM2174.13 649.171L2173.14 649.306L2173.14 649.312L2174.13 649.171ZM2172.44 631.876L2173.44 631.785L2173.44 631.784L2172.44 631.876ZM2158.97 598.297L2158.33 599.066L2158.33 599.07L2158.97 598.297ZM2095.85 569.435H2094.85V570.435H2095.85V569.435ZM2165.37 564.83L2165.96 565.637L2165.97 565.63L2165.37 564.83ZM2164.58 523.614L2164.06 524.467L2164.06 524.468L2164.58 523.614ZM2095.85 520.245V519.245H2094.85V520.245H2095.85ZM2094.85 588.976V654H2096.85V588.976H2094.85ZM2095.85 653H2071.37V655H2095.85V653ZM2072.37 654V500.704H2070.37V654H2072.37ZM2071.37 501.704H2141.22V499.704H2071.37V501.704ZM2141.22 501.704C2161.34 501.704 2175.14 504.446 2182.89 509.728L2184.01 508.076C2175.73 502.428 2161.39 499.704 2141.22 499.704V501.704ZM2182.88 509.725C2188.05 513.293 2192.1 518.025 2195.02 523.945L2196.81 523.059C2193.75 516.85 2189.48 511.849 2184.02 508.079L2182.88 509.725ZM2195.02 523.949C2197.94 529.791 2199.41 536.188 2199.41 543.155H2201.41C2201.41 535.897 2199.88 529.192 2196.81 523.055L2195.02 523.949ZM2199.41 543.155C2199.41 556.173 2195.23 566.168 2186.95 573.281L2188.26 574.797C2197.05 567.236 2201.41 556.642 2201.41 543.155H2199.41ZM2186.96 573.274C2182.38 577.125 2176.2 580.178 2168.35 582.398L2168.9 584.323C2176.93 582.05 2183.39 578.889 2188.25 574.804L2186.96 573.274ZM2168.22 584.275C2178.46 588.801 2185.29 594.118 2188.88 600.156L2190.6 599.133C2186.7 592.593 2179.46 587.054 2169.03 582.446L2168.22 584.275ZM2188.88 600.156C2192.5 606.233 2194.84 616.366 2195.82 630.708L2197.81 630.573C2196.84 616.165 2194.47 605.634 2190.6 599.133L2188.88 600.156ZM2195.82 630.704C2196.41 640.039 2196.86 645.714 2197.17 647.644L2199.15 647.328C2198.86 645.515 2198.41 639.96 2197.81 630.577L2195.82 630.704ZM2197.18 647.682C2197.58 649.699 2198.54 651.976 2199.99 654.499L2201.72 653.501C2200.33 651.083 2199.49 649.017 2199.14 647.29L2197.18 647.682ZM2200.86 653H2175.81V655H2200.86V653ZM2176.69 653.521C2175.84 651.96 2175.32 650.464 2175.12 649.029L2173.14 649.312C2173.38 651.022 2173.99 652.745 2174.93 654.479L2176.69 653.521ZM2175.12 649.036C2174.9 647.417 2174.34 641.682 2173.44 631.785L2171.45 631.967C2172.34 641.835 2172.91 647.63 2173.14 649.306L2175.12 649.036ZM2173.44 631.784C2171.93 615.443 2167.4 603.917 2159.6 597.524L2158.33 599.07C2165.51 604.955 2169.96 615.815 2171.45 631.968L2173.44 631.784ZM2159.61 597.527C2151.84 591.08 2138.66 587.976 2120.33 587.976V589.976C2138.55 589.976 2151.12 593.085 2158.33 599.066L2159.61 597.527ZM2120.33 587.976H2095.85V589.976H2120.33V587.976ZM2095.85 570.435H2139.65V568.435H2095.85V570.435ZM2139.65 570.435C2146.16 570.435 2151.61 570.049 2155.97 569.268C2160.32 568.489 2163.68 567.303 2165.96 565.637L2164.78 564.023C2162.86 565.427 2159.84 566.543 2155.62 567.299C2151.41 568.052 2146.09 568.435 2139.65 568.435V570.435ZM2165.97 565.63C2172.26 560.914 2175.35 553.925 2175.35 544.84H2173.35C2173.35 553.424 2170.46 559.762 2164.77 564.03L2165.97 565.63ZM2175.35 544.84C2175.35 534.44 2172.01 526.969 2165.1 522.76L2164.06 524.468C2170.18 528.196 2173.35 534.875 2173.35 544.84H2175.35ZM2165.1 522.761C2163.09 521.525 2159.92 520.662 2155.73 520.096C2151.52 519.527 2146.15 519.245 2139.65 519.245V521.245C2146.1 521.245 2151.37 521.525 2155.46 522.078C2159.59 522.636 2162.41 523.457 2164.06 524.467L2165.1 522.761ZM2139.65 519.245H2095.85V521.245H2139.65V519.245ZM2094.85 520.245V569.435H2096.85V520.245H2094.85ZM2430.48 500.704H2431.48V499.704H2430.48V500.704ZM2430.48 520.245V521.245H2431.48V520.245H2430.48ZM2366.58 521.93L2366.34 520.959L2366.34 520.96L2366.58 521.93ZM2354.45 527.882L2353.83 527.098L2353.83 527.102L2354.45 527.882ZM2343.34 542.931L2342.41 542.553L2342.41 542.563L2343.34 542.931ZM2338.84 566.964L2337.84 566.904L2337.78 567.964H2338.84V566.964ZM2430.48 566.964H2431.48V565.964H2430.48V566.964ZM2430.48 586.505V587.505H2431.48V586.505H2430.48ZM2338.84 586.505V585.505H2337.86L2337.84 586.484L2338.84 586.505ZM2346.14 616.49L2345.27 616.983L2345.28 616.992L2346.14 616.49ZM2360.52 630.416L2360.09 631.322L2360.52 630.416ZM2430.48 634.459H2431.48V633.459H2430.48V634.459ZM2430.48 654V655H2431.48V654H2430.48ZM2348.73 649.62L2348.38 650.56L2348.38 650.56L2348.73 649.62ZM2317.17 615.367L2318.1 615.013L2318.1 615.011L2317.17 615.367ZM2320.54 535.406L2319.65 534.949L2319.65 534.952L2320.54 535.406ZM2429.48 500.704V520.245H2431.48V500.704H2429.48ZM2430.48 519.245H2385.79V521.245H2430.48V519.245ZM2385.79 519.245C2377.52 519.245 2371.03 519.807 2366.34 520.959L2366.82 522.901C2371.27 521.806 2377.58 521.245 2385.79 521.245V519.245ZM2366.34 520.96C2361.71 522.117 2357.54 524.164 2353.83 527.098L2355.07 528.666C2358.56 525.91 2362.47 523.989 2366.82 522.9L2366.34 520.96ZM2353.83 527.102C2348.75 531.18 2344.94 536.337 2342.41 542.553L2344.26 543.308C2346.67 537.396 2350.28 532.52 2355.08 528.662L2353.83 527.102ZM2342.41 542.563C2339.96 548.763 2338.45 556.89 2337.84 566.904L2339.84 567.024C2340.44 557.122 2341.92 549.227 2344.27 543.298L2342.41 542.563ZM2338.84 567.964H2430.48V565.964H2338.84V567.964ZM2429.48 566.964V586.505H2431.48V566.964H2429.48ZM2430.48 585.505H2338.84V587.505H2430.48V585.505ZM2337.84 586.484C2337.62 597.658 2340.09 607.832 2345.27 616.983L2347.01 615.997C2342.02 607.18 2339.62 597.364 2339.84 586.525L2337.84 586.484ZM2345.28 616.992C2349.18 623.722 2354.11 628.524 2360.09 631.322L2360.94 629.51C2355.4 626.917 2350.74 622.436 2347.01 615.989L2345.28 616.992ZM2360.09 631.322C2366.05 634.106 2374.23 635.459 2384.55 635.459V633.459C2374.36 633.459 2366.52 632.117 2360.94 629.51L2360.09 631.322ZM2384.55 635.459H2430.48V633.459H2384.55V635.459ZM2429.48 634.459V654H2431.48V634.459H2429.48ZM2430.48 653H2380.06V655H2430.48V653ZM2380.06 653C2367.24 653 2356.93 651.546 2349.07 648.681L2348.38 650.56C2356.55 653.535 2367.12 655 2380.06 655V653ZM2349.07 648.681C2335.03 643.562 2324.69 632.403 2318.1 615.013L2316.23 615.721C2322.97 633.52 2333.67 645.197 2348.38 650.56L2349.07 648.681ZM2318.1 615.011C2314.57 605.725 2312.78 594.175 2312.78 580.328H2310.78C2310.78 594.333 2312.58 606.142 2316.23 615.723L2318.1 615.011ZM2312.78 580.328C2312.78 561.929 2315.68 547.127 2321.43 535.86L2319.65 534.952C2313.71 546.596 2310.78 561.742 2310.78 580.328H2312.78ZM2321.43 535.864C2327.87 523.347 2336.01 514.575 2345.82 509.452L2344.89 507.679C2334.64 513.038 2326.23 522.16 2319.65 534.949L2321.43 535.864ZM2345.82 509.452C2355.65 504.317 2369.43 501.704 2387.25 501.704V499.704C2369.28 499.704 2355.13 502.332 2344.89 507.679L2345.82 509.452ZM2387.25 501.704H2430.48V499.704H2387.25V501.704ZM2520.87 575.387L2521.67 575.994L2522.1 575.42L2521.7 574.824L2520.87 575.387ZM2470 500.704V499.704H2468.11L2469.17 501.267L2470 500.704ZM2499.31 500.704L2500.14 500.148L2499.84 499.704H2499.31V500.704ZM2537.04 557.081L2536.21 557.637L2537 558.809L2537.84 557.682L2537.04 557.081ZM2579.38 500.704V499.704H2578.88L2578.58 500.104L2579.38 500.704ZM2608.69 500.704L2609.49 501.313L2610.72 499.704H2608.69V500.704ZM2551.31 575.387L2550.51 574.777L2550.04 575.393L2550.52 576.004L2551.31 575.387ZM2612.96 654V655H2615.02L2613.75 653.383L2612.96 654ZM2583.2 654L2582.41 654.612L2582.71 655H2583.2V654ZM2535.81 592.794L2536.6 592.182L2535.79 591.138L2535 592.198L2535.81 592.794ZM2490.44 654V655H2490.94L2491.24 654.596L2490.44 654ZM2460.79 654L2459.99 653.393L2458.77 655H2460.79V654ZM2521.7 574.824L2470.82 500.141L2469.17 501.267L2520.04 575.95L2521.7 574.824ZM2470 501.704H2499.31V499.704H2470V501.704ZM2498.48 501.26L2536.21 557.637L2537.87 556.525L2500.14 500.148L2498.48 501.26ZM2537.84 557.682L2580.18 501.305L2578.58 500.104L2536.24 556.481L2537.84 557.682ZM2579.38 501.704H2608.69V499.704H2579.38V501.704ZM2607.9 500.095L2550.51 574.777L2552.1 575.996L2609.49 501.313L2607.9 500.095ZM2550.52 576.004L2612.17 654.617L2613.75 653.383L2552.09 574.77L2550.52 576.004ZM2612.96 653H2583.2V655H2612.96V653ZM2583.99 653.388L2536.6 592.182L2535.02 593.406L2582.41 654.612L2583.99 653.388ZM2535 592.198L2489.63 653.404L2491.24 654.596L2536.61 593.389L2535 592.198ZM2490.44 653H2460.79V655H2490.44V653ZM2461.58 654.607L2521.67 575.994L2520.08 574.779L2459.99 653.393L2461.58 654.607ZM2673.48 598.297V597.297H2672.48V598.297H2673.48ZM2673.48 654V655H2674.48V654H2673.48ZM2648.99 654H2647.99V655H2648.99V654ZM2648.99 500.704V499.704H2647.99V500.704H2648.99ZM2743.1 503.849L2742.76 504.788L2742.77 504.79L2743.1 503.849ZM2765.34 522.379L2766.21 521.892L2766.21 521.885L2765.34 522.379ZM2755.35 588.526L2754.7 587.76V587.76L2755.35 588.526ZM2739.06 596.051L2739.28 597.026L2739.06 596.051ZM2673.48 578.756H2672.48V579.756H2673.48V578.756ZM2737.6 572.13L2736.9 571.418L2736.89 571.423L2737.6 572.13ZM2737.49 526.534L2736.77 527.228L2736.77 527.231L2737.49 526.534ZM2673.48 520.245V519.245H2672.48V520.245H2673.48ZM2672.48 598.297V654H2674.48V598.297H2672.48ZM2673.48 653H2648.99V655H2673.48V653ZM2649.99 654V500.704H2647.99V654H2649.99ZM2648.99 501.704H2716.71V499.704H2648.99V501.704ZM2716.71 501.704C2728.51 501.704 2737.17 502.754 2742.76 504.788L2743.45 502.909C2737.51 500.751 2728.57 499.704 2716.71 499.704V501.704ZM2742.77 504.79C2752.36 508.23 2759.58 514.252 2764.47 522.873L2766.21 521.885C2761.07 512.837 2753.47 506.505 2743.44 502.907L2742.77 504.79ZM2764.47 522.865C2768.41 529.945 2770.4 538.64 2770.4 548.995H2772.4C2772.4 538.387 2770.36 529.338 2766.21 521.893L2764.47 522.865ZM2770.4 548.995C2770.4 566.148 2765.13 579.011 2754.7 587.76L2755.99 589.292C2766.97 580.073 2772.4 566.582 2772.4 548.995H2770.4ZM2754.7 587.76C2750.66 591.154 2745.39 593.604 2738.84 595.075L2739.28 597.026C2746.06 595.503 2751.65 592.936 2755.99 589.292L2754.7 587.76ZM2738.84 595.075C2732.28 596.549 2723.38 597.297 2712.11 597.297V599.297C2723.45 599.297 2732.51 598.547 2739.28 597.026L2738.84 595.075ZM2712.11 597.297H2673.48V599.297H2712.11V597.297ZM2673.48 579.756H2713.79V577.756H2673.48V579.756ZM2713.79 579.756C2725.31 579.756 2733.6 577.547 2738.31 572.837L2736.89 571.423C2732.77 575.547 2725.18 577.756 2713.79 577.756V579.756ZM2738.3 572.842C2743.66 567.562 2746.24 559.388 2746.24 548.546H2744.24C2744.24 559.117 2741.72 566.665 2736.9 571.418L2738.3 572.842ZM2746.24 548.546C2746.24 538.999 2743.6 531.385 2738.21 525.837L2736.77 527.231C2741.71 532.314 2744.24 539.376 2744.24 548.546H2746.24ZM2738.21 525.84C2736.01 523.562 2732.75 521.923 2728.53 520.848C2724.3 519.773 2719.04 519.245 2712.78 519.245V521.245C2718.95 521.245 2724.02 521.766 2728.03 522.786C2732.05 523.809 2734.92 525.314 2736.77 527.228L2738.21 525.84ZM2712.78 519.245H2673.48V521.245H2712.78V519.245ZM2672.48 520.245V578.756H2674.48V520.245H2672.48ZM2836.3 588.976V587.976H2835.3V588.976H2836.3ZM2836.3 654V655H2837.3V654H2836.3ZM2811.82 654H2810.82V655H2811.82V654ZM2811.82 500.704V499.704H2810.82V500.704H2811.82ZM2923.9 508.902L2924.46 508.079L2924.46 508.076L2923.9 508.902ZM2936.36 523.502L2935.47 523.945L2935.47 523.949L2936.36 523.502ZM2928.05 574.039L2928.7 574.804L2928.7 574.797L2928.05 574.039ZM2909.07 583.36L2908.8 582.398L2906.13 583.154L2908.67 584.275L2909.07 583.36ZM2937.26 630.641L2938.26 630.577L2938.26 630.573L2937.26 630.641ZM2938.61 647.486L2937.62 647.644L2937.62 647.663L2937.63 647.682L2938.61 647.486ZM2941.3 654V655H2943.03L2942.17 653.501L2941.3 654ZM2916.26 654L2915.38 654.479L2915.67 655H2916.26V654ZM2914.58 649.171L2913.58 649.306L2913.59 649.312L2914.58 649.171ZM2912.89 631.876L2913.89 631.785L2913.89 631.784L2912.89 631.876ZM2899.41 598.297L2898.78 599.066L2898.78 599.07L2899.41 598.297ZM2836.3 569.435H2835.3V570.435H2836.3V569.435ZM2905.82 564.83L2906.41 565.637L2906.42 565.63L2905.82 564.83ZM2905.03 523.614L2904.51 524.467L2904.51 524.468L2905.03 523.614ZM2836.3 520.245V519.245H2835.3V520.245H2836.3ZM2835.3 588.976V654H2837.3V588.976H2835.3ZM2836.3 653H2811.82V655H2836.3V653ZM2812.82 654V500.704H2810.82V654H2812.82ZM2811.82 501.704H2881.67V499.704H2811.82V501.704ZM2881.67 501.704C2901.79 501.704 2915.59 504.446 2923.33 509.728L2924.46 508.076C2916.18 502.428 2901.84 499.704 2881.67 499.704V501.704ZM2923.33 509.725C2928.5 513.293 2932.54 518.025 2935.47 523.945L2937.26 523.059C2934.19 516.85 2929.93 511.849 2924.46 508.079L2923.33 509.725ZM2935.47 523.949C2938.39 529.791 2939.85 536.188 2939.85 543.155H2941.85C2941.85 535.897 2940.33 529.192 2937.26 523.055L2935.47 523.949ZM2939.85 543.155C2939.85 556.173 2935.67 566.168 2927.4 573.281L2928.7 574.797C2937.5 567.236 2941.85 556.642 2941.85 543.155H2939.85ZM2927.41 573.274C2922.83 577.125 2916.64 580.178 2908.8 582.398L2909.34 584.323C2917.37 582.05 2923.84 578.889 2928.7 574.804L2927.41 573.274ZM2908.67 584.275C2918.91 588.801 2925.73 594.118 2929.33 600.156L2931.05 599.133C2927.15 592.593 2919.9 587.054 2909.48 582.446L2908.67 584.275ZM2929.33 600.156C2932.94 606.233 2935.29 616.366 2936.26 630.708L2938.26 630.573C2937.28 616.165 2934.91 605.634 2931.05 599.133L2929.33 600.156ZM2936.26 630.704C2936.86 640.039 2937.31 645.714 2937.62 647.644L2939.6 647.328C2939.31 645.515 2938.86 639.96 2938.26 630.577L2936.26 630.704ZM2937.63 647.682C2938.03 649.699 2938.98 651.976 2940.44 654.499L2942.17 653.501C2940.78 651.083 2939.93 649.017 2939.59 647.29L2937.63 647.682ZM2941.3 653H2916.26V655H2941.3V653ZM2917.14 653.521C2916.29 651.96 2915.77 650.464 2915.57 649.029L2913.59 649.312C2913.83 651.022 2914.44 652.745 2915.38 654.479L2917.14 653.521ZM2915.57 649.036C2915.35 647.417 2914.79 641.682 2913.89 631.785L2911.9 631.967C2912.79 641.835 2913.36 647.63 2913.58 649.306L2915.57 649.036ZM2913.89 631.784C2912.38 615.443 2907.85 603.917 2900.05 597.524L2898.78 599.07C2905.96 604.955 2910.41 615.815 2911.9 631.968L2913.89 631.784ZM2900.05 597.527C2892.29 591.08 2879.1 587.976 2860.78 587.976V589.976C2879 589.976 2891.57 593.085 2898.78 599.066L2900.05 597.527ZM2860.78 587.976H2836.3V589.976H2860.78V587.976ZM2836.3 570.435H2880.1V568.435H2836.3V570.435ZM2880.1 570.435C2886.61 570.435 2892.05 570.049 2896.42 569.268C2900.77 568.489 2904.13 567.303 2906.41 565.637L2905.22 564.023C2903.31 565.427 2900.29 566.543 2896.07 567.299C2891.86 568.052 2886.54 568.435 2880.1 568.435V570.435ZM2906.42 565.63C2912.7 560.914 2915.8 553.925 2915.8 544.84H2913.8C2913.8 553.424 2910.91 559.762 2905.22 564.03L2906.42 565.63ZM2915.8 544.84C2915.8 534.44 2912.46 526.969 2905.55 522.76L2904.51 524.468C2910.63 528.196 2913.8 534.875 2913.8 544.84H2915.8ZM2905.55 522.761C2903.53 521.525 2900.37 520.662 2896.18 520.096C2891.96 519.527 2886.6 519.245 2880.1 519.245V521.245C2886.55 521.245 2891.82 521.525 2895.91 522.078C2900.03 522.636 2902.86 523.457 2904.51 524.467L2905.55 522.761ZM2880.1 519.245H2836.3V521.245H2880.1V519.245ZM2835.3 520.245V569.435H2837.3V520.245H2835.3ZM3095.03 500.704H3096.03V499.704H3095.03V500.704ZM3095.03 520.245V521.245H3096.03V520.245H3095.03ZM3031.13 521.93L3030.89 520.959L3030.89 520.96L3031.13 521.93ZM3019 527.882L3018.38 527.098L3018.37 527.102L3019 527.882ZM3007.88 542.931L3006.96 542.553L3006.95 542.563L3007.88 542.931ZM3003.39 566.964L3002.39 566.904L3002.33 567.964H3003.39V566.964ZM3095.03 566.964H3096.03V565.964H3095.03V566.964ZM3095.03 586.505V587.505H3096.03V586.505H3095.03ZM3003.39 586.505V585.505H3002.41L3002.39 586.484L3003.39 586.505ZM3010.69 616.49L3009.82 616.983L3009.82 616.992L3010.69 616.49ZM3025.07 630.416L3024.64 631.322L3025.07 630.416ZM3095.03 634.459H3096.03V633.459H3095.03V634.459ZM3095.03 654V655H3096.03V654H3095.03ZM3013.27 649.62L3012.93 650.56L3012.93 650.56L3013.27 649.62ZM2981.72 615.367L2982.65 615.013L2982.65 615.011L2981.72 615.367ZM2985.08 535.406L2984.2 534.949L2984.19 534.952L2985.08 535.406ZM3094.03 500.704V520.245H3096.03V500.704H3094.03ZM3095.03 519.245H3050.33V521.245H3095.03V519.245ZM3050.33 519.245C3042.07 519.245 3035.57 519.807 3030.89 520.959L3031.37 522.901C3035.82 521.806 3042.13 521.245 3050.33 521.245V519.245ZM3030.89 520.96C3026.26 522.117 3022.09 524.164 3018.38 527.098L3019.62 528.666C3023.1 525.91 3027.02 523.989 3031.37 522.9L3030.89 520.96ZM3018.37 527.102C3013.3 531.18 3009.49 536.337 3006.96 542.553L3008.81 543.308C3011.22 537.396 3014.82 532.52 3019.63 528.662L3018.37 527.102ZM3006.95 542.563C3004.5 548.763 3002.99 556.89 3002.39 566.904L3004.39 567.024C3004.98 557.122 3006.47 549.227 3008.81 543.298L3006.95 542.563ZM3003.39 567.964H3095.03V565.964H3003.39V567.964ZM3094.03 566.964V586.505H3096.03V566.964H3094.03ZM3095.03 585.505H3003.39V587.505H3095.03V585.505ZM3002.39 586.484C3002.16 597.658 3004.63 607.832 3009.82 616.983L3011.56 615.997C3006.56 607.18 3004.17 597.364 3004.39 586.525L3002.39 586.484ZM3009.82 616.992C3013.73 623.722 3018.66 628.524 3024.64 631.322L3025.49 629.51C3019.94 626.917 3015.29 622.436 3011.56 615.989L3009.82 616.992ZM3024.64 631.322C3030.6 634.106 3038.77 635.459 3049.1 635.459V633.459C3038.91 633.459 3031.06 632.117 3025.49 629.51L3024.64 631.322ZM3049.1 635.459H3095.03V633.459H3049.1V635.459ZM3094.03 634.459V654H3096.03V634.459H3094.03ZM3095.03 653H3044.61V655H3095.03V653ZM3044.61 653C3031.79 653 3021.48 651.546 3013.62 648.681L3012.93 650.56C3021.09 653.535 3031.67 655 3044.61 655V653ZM3013.62 648.681C2999.58 643.562 2989.24 632.403 2982.65 615.013L2980.78 615.721C2987.52 633.52 2998.22 645.197 3012.93 650.56L3013.62 648.681ZM2982.65 615.011C2979.11 605.725 2977.32 594.175 2977.32 580.328H2975.32C2975.32 594.333 2977.13 606.142 2980.78 615.723L2982.65 615.011ZM2977.32 580.328C2977.32 561.929 2980.23 547.127 2985.98 535.86L2984.19 534.952C2978.26 546.596 2975.32 561.742 2975.32 580.328H2977.32ZM2985.97 535.864C2992.42 523.347 3000.56 514.575 3010.37 509.452L3009.44 507.679C2999.18 513.038 2990.78 522.16 2984.2 534.949L2985.97 535.864ZM3010.37 509.452C3020.2 504.317 3033.98 501.704 3051.79 501.704V499.704C3033.82 499.704 3019.68 502.332 3009.44 507.679L3010.37 509.452ZM3051.79 501.704H3095.03V499.704H3051.79V501.704ZM3137.91 654H3136.91V655H3137.91V654ZM3137.91 634.459V633.459H3136.91V634.459H3137.91ZM3226.07 630.641L3226.57 631.507L3226.57 631.506L3226.07 630.641ZM3223.04 588.639L3222.73 589.589L3222.73 589.59L3223.04 588.639ZM3148.81 579.43L3149.34 578.586L3149.34 578.584L3148.81 579.43ZM3139.94 520.694L3140.77 521.247L3140.77 521.243L3139.94 520.694ZM3158.8 505.196L3159.16 506.132L3159.16 506.13L3158.8 505.196ZM3254.94 500.704H3255.94V499.704H3254.94V500.704ZM3254.94 520.245V521.245H3255.94V520.245H3254.94ZM3176.43 521.256L3176.6 522.242L3176.61 522.24L3176.62 522.239L3176.43 521.256ZM3167.23 524.625L3166.69 523.778L3166.69 523.783L3167.23 524.625ZM3166.1 559.664L3165.56 560.504L3165.56 560.507L3166.1 559.664ZM3246.29 572.916L3246.89 572.12L3246.89 572.116L3246.29 572.916ZM3257.97 588.414L3257.05 588.805L3257.05 588.814L3257.97 588.414ZM3241.01 648.16L3241.46 649.052L3241.47 649.048L3241.01 648.16ZM3225.96 652.765L3225.82 651.775L3225.81 651.776L3225.96 652.765ZM3138.91 654V634.459H3136.91V654H3138.91ZM3137.91 635.459H3204.17V633.459H3137.91V635.459ZM3204.17 635.459C3214.39 635.459 3221.91 634.191 3226.57 631.507L3225.57 629.774C3221.4 632.181 3214.32 633.459 3204.17 633.459V635.459ZM3226.57 631.506C3233.69 627.396 3237.18 620.393 3237.18 610.763H3235.18C3235.18 619.85 3231.93 626.099 3225.57 629.775L3226.57 631.506ZM3237.18 610.763C3237.18 604.697 3236.07 599.683 3233.76 595.793C3231.43 591.88 3227.94 589.179 3223.35 587.688L3222.73 589.59C3226.9 590.943 3229.98 593.352 3232.04 596.814C3234.1 600.298 3235.18 604.924 3235.18 610.763H3237.18ZM3223.35 587.688C3219.28 586.358 3211.3 585.729 3199.57 585.729V587.729C3211.35 587.729 3219.01 588.374 3222.73 589.589L3223.35 587.688ZM3199.57 585.729H3186.77V587.729H3199.57V585.729ZM3186.77 585.729C3169.14 585.729 3156.73 583.292 3149.34 578.586L3148.27 580.273C3156.16 585.3 3169.06 587.729 3186.77 587.729V585.729ZM3149.34 578.584C3138.75 571.909 3133.41 561.366 3133.41 546.749H3131.41C3131.41 561.93 3137 573.174 3148.27 580.276L3149.34 578.584ZM3133.41 546.749C3133.41 537.121 3135.87 528.632 3140.77 521.247L3139.1 520.142C3133.97 527.881 3131.41 536.761 3131.41 546.749H3133.41ZM3140.77 521.243C3145.53 513.993 3151.66 508.971 3159.16 506.131L3158.45 504.261C3150.52 507.261 3144.07 512.571 3139.1 520.145L3140.77 521.243ZM3159.16 506.13C3166.78 503.199 3177.64 501.704 3191.82 501.704V499.704C3177.55 499.704 3166.4 501.204 3158.44 504.263L3159.16 506.13ZM3191.82 501.704H3254.94V499.704H3191.82V501.704ZM3253.94 500.704V520.245H3255.94V500.704H3253.94ZM3254.94 519.245H3191.82V521.245H3254.94V519.245ZM3191.82 519.245C3185.14 519.245 3179.93 519.582 3176.25 520.273L3176.62 522.239C3180.12 521.582 3185.18 521.245 3191.82 521.245V519.245ZM3176.27 520.27C3172.64 520.888 3169.44 522.051 3166.69 523.778L3167.76 525.472C3170.25 523.904 3173.19 522.822 3176.6 522.242L3176.27 520.27ZM3166.69 523.783C3160.48 527.758 3157.47 534.34 3157.47 543.268H3159.47C3159.47 534.825 3162.29 528.979 3167.76 525.467L3166.69 523.783ZM3157.47 543.268C3157.47 551.143 3160.11 556.977 3165.56 560.504L3166.65 558.824C3161.91 555.763 3159.47 550.665 3159.47 543.268H3157.47ZM3165.56 560.507C3170.98 563.963 3179.8 565.605 3191.82 565.605V563.605C3179.88 563.605 3171.55 561.954 3166.64 558.821L3165.56 560.507ZM3191.82 565.605H3201.03V563.605H3191.82V565.605ZM3201.03 565.605C3214.12 565.605 3223.81 566.205 3230.16 567.385L3230.52 565.419C3223.99 564.204 3214.14 563.605 3201.03 563.605V565.605ZM3230.16 567.385C3236.48 568.562 3241.64 570.684 3245.69 573.716L3246.89 572.116C3242.54 568.859 3237.08 566.638 3230.52 565.419L3230.16 567.385ZM3245.68 573.712C3250.54 577.412 3254.34 582.432 3257.05 588.805L3258.89 588.023C3256.06 581.369 3252.06 576.056 3246.89 572.12L3245.68 573.712ZM3257.05 588.814C3259.84 595.189 3261.23 602.238 3261.23 609.977H3263.23C3263.23 601.992 3261.79 594.667 3258.88 588.014L3257.05 588.814ZM3261.23 609.977C3261.23 618.907 3259.49 626.442 3256.05 632.625C3252.62 638.802 3247.47 643.685 3240.55 647.272L3241.47 649.048C3248.7 645.298 3254.16 640.149 3257.8 633.597C3261.44 627.053 3263.23 619.165 3263.23 609.977H3261.23ZM3240.56 647.269C3236.25 649.459 3231.34 650.965 3225.82 651.775L3226.11 653.754C3231.81 652.917 3236.94 651.353 3241.46 649.052L3240.56 647.269ZM3225.81 651.776C3220.35 652.588 3212.1 653 3201.03 653V655C3212.12 655 3220.49 654.589 3226.11 653.754L3225.81 651.776ZM3201.03 653H3137.91V655H3201.03V653ZM3302.76 654H3301.76V655H3302.76V654ZM3302.76 634.459V633.459H3301.76V634.459H3302.76ZM3390.92 630.641L3391.42 631.507L3391.42 631.506L3390.92 630.641ZM3387.89 588.639L3387.57 589.589L3387.58 589.59L3387.89 588.639ZM3313.65 579.43L3314.19 578.586L3314.19 578.584L3313.65 579.43ZM3304.78 520.694L3305.61 521.247L3305.62 521.243L3304.78 520.694ZM3323.65 505.196L3324 506.132L3324.01 506.13L3323.65 505.196ZM3419.78 500.704H3420.78V499.704H3419.78V500.704ZM3419.78 520.245V521.245H3420.78V520.245H3419.78ZM3341.28 521.256L3341.45 522.242L3341.46 522.24L3341.46 522.239L3341.28 521.256ZM3332.07 524.625L3331.54 523.778L3331.53 523.783L3332.07 524.625ZM3330.95 559.664L3330.4 560.504L3330.41 560.507L3330.95 559.664ZM3411.13 572.916L3411.74 572.12L3411.73 572.116L3411.13 572.916ZM3422.81 588.414L3421.89 588.805L3421.9 588.814L3422.81 588.414ZM3405.85 648.16L3406.31 649.052L3406.31 649.048L3405.85 648.16ZM3390.81 652.765L3390.66 651.775L3390.66 651.776L3390.81 652.765ZM3303.76 654V634.459H3301.76V654H3303.76ZM3302.76 635.459H3369.02V633.459H3302.76V635.459ZM3369.02 635.459C3379.23 635.459 3386.76 634.191 3391.42 631.507L3390.42 629.774C3386.24 632.181 3379.17 633.459 3369.02 633.459V635.459ZM3391.42 631.506C3398.53 627.396 3402.03 620.393 3402.03 610.763H3400.03C3400.03 619.85 3396.78 626.099 3390.42 629.775L3391.42 631.506ZM3402.03 610.763C3402.03 604.697 3400.91 599.683 3398.6 595.793C3396.28 591.88 3392.79 589.179 3388.19 587.688L3387.58 589.59C3391.74 590.943 3394.82 593.352 3396.88 596.814C3398.95 600.298 3400.03 604.924 3400.03 610.763H3402.03ZM3388.2 587.688C3384.13 586.358 3376.15 585.729 3364.41 585.729V587.729C3376.19 587.729 3383.86 588.374 3387.57 589.589L3388.2 587.688ZM3364.41 585.729H3351.61V587.729H3364.41V585.729ZM3351.61 585.729C3333.98 585.729 3321.57 583.292 3314.19 578.586L3313.11 580.273C3321 585.3 3333.9 587.729 3351.61 587.729V585.729ZM3314.19 578.584C3303.59 571.909 3298.26 561.366 3298.26 546.749H3296.26C3296.26 561.93 3301.85 573.174 3313.12 580.276L3314.19 578.584ZM3298.26 546.749C3298.26 537.121 3300.71 528.632 3305.61 521.247L3303.95 520.142C3298.81 527.881 3296.26 536.761 3296.26 546.749H3298.26ZM3305.62 521.243C3310.38 513.993 3316.5 508.971 3324 506.131L3323.29 504.261C3315.37 507.261 3308.92 512.571 3303.94 520.145L3305.62 521.243ZM3324.01 506.13C3331.63 503.199 3342.49 501.704 3356.67 501.704V499.704C3342.39 499.704 3331.24 501.204 3323.29 504.263L3324.01 506.13ZM3356.67 501.704H3419.78V499.704H3356.67V501.704ZM3418.78 500.704V520.245H3420.78V500.704H3418.78ZM3419.78 519.245H3356.67V521.245H3419.78V519.245ZM3356.67 519.245C3349.98 519.245 3344.78 519.582 3341.09 520.273L3341.46 522.239C3344.97 521.582 3350.02 521.245 3356.67 521.245V519.245ZM3341.11 520.27C3337.48 520.888 3334.29 522.051 3331.54 523.778L3332.6 525.472C3335.1 523.904 3338.04 522.822 3341.45 522.242L3341.11 520.27ZM3331.53 523.783C3325.33 527.758 3322.31 534.34 3322.31 543.268H3324.31C3324.31 534.825 3327.13 528.979 3332.61 525.467L3331.53 523.783ZM3322.31 543.268C3322.31 551.143 3324.95 556.977 3330.4 560.504L3331.49 558.824C3326.76 555.763 3324.31 550.665 3324.31 543.268H3322.31ZM3330.41 560.507C3335.83 563.963 3344.65 565.605 3356.67 565.605V563.605C3344.73 563.605 3336.4 561.954 3331.48 558.821L3330.41 560.507ZM3356.67 565.605H3365.87V563.605H3356.67V565.605ZM3365.87 565.605C3378.96 565.605 3388.66 566.205 3395 567.385L3395.37 565.419C3388.84 564.204 3378.99 563.605 3365.87 563.605V565.605ZM3395 567.385C3401.33 568.562 3406.49 570.684 3410.53 573.716L3411.73 572.116C3407.39 568.859 3401.92 566.638 3395.37 565.419L3395 567.385ZM3410.53 573.712C3415.39 577.412 3419.18 582.432 3421.89 588.805L3423.73 588.023C3420.9 581.369 3416.91 576.056 3411.74 572.12L3410.53 573.712ZM3421.9 588.814C3424.68 595.189 3426.08 602.238 3426.08 609.977H3428.08C3428.08 601.992 3426.63 594.667 3423.73 588.014L3421.9 588.814ZM3426.08 609.977C3426.08 618.907 3424.34 626.442 3420.9 632.625C3417.47 638.802 3412.31 643.685 3405.39 647.272L3406.31 649.048C3413.55 645.298 3419.01 640.149 3422.65 633.597C3426.29 627.053 3428.08 619.165 3428.08 609.977H3426.08ZM3405.4 647.269C3401.09 649.459 3396.18 650.965 3390.66 651.775L3390.95 653.754C3396.66 652.917 3401.78 651.353 3406.31 649.052L3405.4 647.269ZM3390.66 651.776C3385.19 652.588 3376.94 653 3365.87 653V655C3376.97 655 3385.34 654.589 3390.95 653.754L3390.66 651.776ZM3365.87 653H3302.76V655H3365.87V653Z" fill="#fafafa"/>
<path d="M1083.16 859.008V876H1041.75C1029.9 876 1020.5 875.023 1013.53 873.07C999.664 869.164 989.443 859.984 982.867 845.531C978.115 835.18 975.738 823.428 975.738 810.277C975.738 794.717 978.961 781.013 985.406 769.164C990.745 759.333 997.483 752.465 1005.62 748.559C1013.76 744.652 1025.41 742.699 1040.58 742.699H1083.16V759.691H1041.75C1032.7 759.691 1025.87 760.408 1021.25 761.84C1016.62 763.207 1012.75 765.779 1009.62 769.555C1006.11 773.721 1003.34 779.483 1001.32 786.84C999.371 794.132 998.395 802.139 998.395 810.863C998.395 827.335 1002.24 839.9 1009.92 848.559C1013.5 852.595 1017.67 855.362 1022.42 856.859C1027.17 858.292 1034.2 859.008 1043.51 859.008H1083.16ZM1215.96 742.699V759.691H1177.09C1169.93 759.691 1164.36 760.18 1160.39 761.156C1156.48 762.133 1152.97 763.858 1149.84 766.332C1145.55 769.783 1142.32 774.145 1140.18 779.418C1138.09 784.691 1136.79 791.658 1136.27 800.316H1215.96V817.309H1136.27C1136.07 826.879 1138.19 835.57 1142.62 843.383C1145.94 849.112 1150.1 853.148 1155.12 855.492C1160.13 857.836 1167.1 859.008 1176.02 859.008H1215.96V876H1172.11C1160.91 876 1151.83 874.73 1144.86 872.191C1132.36 867.634 1123.22 857.706 1117.42 842.406C1114.3 834.203 1112.73 824.047 1112.73 811.938C1112.73 795.857 1115.27 782.836 1120.35 772.875C1126.02 761.872 1133.21 754.092 1141.93 749.535C1150.66 744.978 1162.8 742.699 1178.36 742.699H1215.96ZM1276.29 769.652V876H1255.59V742.699H1280.98L1348.95 849.34V742.699H1369.65V876H1344.95L1276.29 769.652ZM1446.79 759.691H1400.69V742.699H1514.27V759.691H1468.07V876H1446.79V759.691ZM1566.69 819.457V876H1545.4V742.699H1606.14C1623.66 742.699 1635.9 745.076 1642.86 749.828C1647.49 753.018 1651.1 757.25 1653.7 762.523C1656.31 767.732 1657.61 773.428 1657.61 779.613C1657.61 791.137 1653.9 800.089 1646.48 806.469C1642.38 809.919 1636.87 812.621 1629.97 814.574C1638.96 818.546 1645.08 823.266 1648.33 828.734C1651.59 834.203 1653.64 843.188 1654.48 855.688C1655.01 863.826 1655.4 868.708 1655.66 870.336C1655.98 871.964 1656.76 873.852 1658 876H1636.22C1635.44 874.568 1634.95 873.168 1634.76 871.801C1634.56 870.368 1634.07 865.355 1633.29 856.762C1631.99 842.634 1628.08 832.901 1621.57 827.562C1615.06 822.159 1603.87 819.457 1587.98 819.457H1566.69ZM1566.69 802.465H1604.78C1616.04 802.465 1623.49 801.13 1627.14 798.461C1632.35 794.555 1634.95 788.76 1634.95 781.078C1634.95 772.224 1632.12 766.072 1626.46 762.621C1623.27 760.668 1616.04 759.691 1604.78 759.691H1566.69V802.465ZM1752.91 740.746C1778.04 740.746 1795.61 748.331 1805.64 763.5C1812.93 774.633 1816.58 790.03 1816.58 809.691C1816.58 833.845 1810.49 851.391 1798.32 862.328C1786.66 872.745 1770.88 877.953 1750.95 877.953C1728.17 877.953 1711.57 871.475 1701.15 858.52C1696.98 853.376 1693.63 846.378 1691.09 837.523C1688.62 828.604 1687.38 819.294 1687.38 809.594C1687.38 799.763 1688.68 790.486 1691.29 781.762C1693.95 772.973 1697.57 765.941 1702.12 760.668C1707.79 754.027 1714.76 749.079 1723.02 745.824C1731.29 742.569 1741.25 740.876 1752.91 740.746ZM1752.71 757.738C1734.29 757.738 1721.95 764.151 1715.7 776.977C1711.92 784.724 1710.04 795.466 1710.04 809.203C1710.04 825.74 1712.8 838.142 1718.34 846.41C1724.85 856.111 1736.21 860.961 1752.42 860.961C1770.84 860.961 1783.05 854.483 1789.04 841.527C1792.29 834.431 1793.92 824.014 1793.92 810.277C1793.92 793.48 1791.51 781.241 1786.7 773.559C1780.12 763.142 1768.79 757.868 1752.71 757.738ZM1977.68 740.746C2002.81 740.746 2020.39 748.331 2030.41 763.5C2037.71 774.633 2041.35 790.03 2041.35 809.691C2041.35 833.845 2035.26 851.391 2023.09 862.328C2011.44 872.745 1995.65 877.953 1975.73 877.953C1952.94 877.953 1936.34 871.475 1925.92 858.52C1921.76 853.376 1918.4 846.378 1915.86 837.523C1913.39 828.604 1912.15 819.294 1912.15 809.594C1912.15 799.763 1913.45 790.486 1916.06 781.762C1918.73 772.973 1922.34 765.941 1926.9 760.668C1932.56 754.027 1939.53 749.079 1947.8 745.824C1956.07 742.569 1966.03 740.876 1977.68 740.746ZM1977.48 757.738C1959.06 757.738 1946.72 764.151 1940.47 776.977C1936.7 784.724 1934.81 795.466 1934.81 809.203C1934.81 825.74 1937.58 838.142 1943.11 846.41C1949.62 856.111 1960.98 860.961 1977.19 860.961C1995.62 860.961 2007.82 854.483 2013.81 841.527C2017.07 834.431 2018.7 824.014 2018.7 810.277C2018.7 793.48 2016.29 781.241 2011.47 773.559C2004.89 763.142 1993.57 757.868 1977.48 757.738ZM1963.42 731.371L1982.07 707.348H2003.46L1978.27 731.371H1963.42ZM2099.83 827.562V876H2078.54V742.699H2137.43C2147.72 742.699 2155.37 743.611 2160.38 745.434C2168.91 748.493 2175.35 753.865 2179.71 761.547C2183.23 767.862 2184.99 775.577 2184.99 784.691C2184.99 799.796 2180.33 811.254 2171.02 819.066C2167.38 822.126 2162.66 824.307 2156.86 825.609C2151.07 826.911 2143.26 827.562 2133.43 827.562H2099.83ZM2099.83 810.57H2134.89C2144.85 810.57 2151.75 808.65 2155.59 804.809C2160.02 800.447 2162.23 793.611 2162.23 784.301C2162.23 776.163 2159.99 769.783 2155.5 765.16C2151.98 761.514 2144.82 759.691 2134.01 759.691H2099.83V810.57ZM2252.55 759.691H2206.46V742.699H2320.03V759.691H2273.84V876H2252.55V759.691ZM2351.17 876V742.699H2372.46V876H2351.17ZM2516.97 859.008V876H2475.57C2463.72 876 2454.31 875.023 2447.34 873.07C2433.48 869.164 2423.26 859.984 2416.68 845.531C2411.93 835.18 2409.55 823.428 2409.55 810.277C2409.55 794.717 2412.77 781.013 2419.22 769.164C2424.56 759.333 2431.3 752.465 2439.43 748.559C2447.57 744.652 2459.23 742.699 2474.39 742.699H2516.97V759.691H2475.57C2466.52 759.691 2459.68 760.408 2455.06 761.84C2450.44 763.207 2446.56 765.779 2443.44 769.555C2439.92 773.721 2437.15 779.483 2435.14 786.84C2433.18 794.132 2432.21 802.139 2432.21 810.863C2432.21 827.335 2436.05 839.9 2443.73 848.559C2447.31 852.595 2451.48 855.362 2456.23 856.859C2460.98 858.292 2468.01 859.008 2477.32 859.008H2516.97ZM2605.73 740.746C2630.86 740.746 2648.43 748.331 2658.46 763.5C2665.75 774.633 2669.4 790.03 2669.4 809.691C2669.4 833.845 2663.31 851.391 2651.14 862.328C2639.48 872.745 2623.7 877.953 2603.77 877.953C2580.99 877.953 2564.39 871.475 2553.97 858.52C2549.8 853.376 2546.45 846.378 2543.91 837.523C2541.44 828.604 2540.2 819.294 2540.2 809.594C2540.2 799.763 2541.5 790.486 2544.11 781.762C2546.77 772.973 2550.39 765.941 2554.95 760.668C2560.61 754.027 2567.58 749.079 2575.84 745.824C2584.11 742.569 2594.07 740.876 2605.73 740.746ZM2605.53 757.738C2587.11 757.738 2574.77 764.151 2568.52 776.977C2564.74 784.724 2562.86 795.466 2562.86 809.203C2562.86 825.74 2565.62 838.142 2571.16 846.41C2577.67 856.111 2589.03 860.961 2605.24 860.961C2623.66 860.961 2635.87 854.483 2641.86 841.527C2645.11 834.431 2646.74 824.014 2646.74 810.277C2646.74 793.48 2644.33 781.241 2639.52 773.559C2632.94 763.142 2621.61 757.868 2605.53 757.738Z" fill="#fafafa"/>
<path d="M1083.16 859.008H1084.16V858.008H1083.16V859.008ZM1083.16 876V877H1084.16V876H1083.16ZM1013.53 873.07L1013.26 874.033L1013.26 874.033L1013.53 873.07ZM982.867 845.531L983.777 845.117L983.776 845.114L982.867 845.531ZM985.406 769.164L986.285 769.642L986.285 769.641L985.406 769.164ZM1083.16 742.699H1084.16V741.699H1083.16V742.699ZM1083.16 759.691V760.691H1084.16V759.691H1083.16ZM1021.25 761.84L1021.53 762.799L1021.54 762.795L1021.25 761.84ZM1009.62 769.555L1010.39 770.2L1010.4 770.192L1009.62 769.555ZM1001.32 786.84L1000.36 786.575L1000.36 786.581L1001.32 786.84ZM1009.92 848.559L1010.67 847.895L1010.67 847.895L1009.92 848.559ZM1022.42 856.859L1022.12 857.813L1022.13 857.817L1022.42 856.859ZM1082.16 859.008V876H1084.16V859.008H1082.16ZM1083.16 875H1041.75V877H1083.16V875ZM1041.75 875C1029.95 875 1020.64 874.025 1013.8 872.107L1013.26 874.033C1020.35 876.022 1029.86 877 1041.75 877V875ZM1013.8 872.108C1000.25 868.29 990.245 859.333 983.777 845.117L981.957 845.945C988.64 860.636 999.078 870.038 1013.26 874.033L1013.8 872.108ZM983.776 845.114C979.092 834.912 976.738 823.307 976.738 810.277H974.738C974.738 823.55 977.137 835.447 981.958 845.949L983.776 845.114ZM976.738 810.277C976.738 794.859 979.931 781.323 986.285 769.642L984.528 768.686C977.991 780.703 974.738 794.576 974.738 810.277H976.738ZM986.285 769.641C991.548 759.951 998.147 753.256 1006.05 749.46L1005.19 747.657C996.819 751.674 989.942 758.716 984.527 768.687L986.285 769.641ZM1006.05 749.46C1013.99 745.648 1025.47 743.699 1040.58 743.699V741.699C1025.35 741.699 1013.52 743.656 1005.19 747.657L1006.05 749.46ZM1040.58 743.699H1083.16V741.699H1040.58V743.699ZM1082.16 742.699V759.691H1084.16V742.699H1082.16ZM1083.16 758.691H1041.75V760.691H1083.16V758.691ZM1041.75 758.691C1032.68 758.691 1025.72 759.407 1020.95 760.885L1021.54 762.795C1026.02 761.408 1032.73 760.691 1041.75 760.691V758.691ZM1020.96 760.881C1016.15 762.305 1012.1 764.991 1008.85 768.917L1010.4 770.192C1013.4 766.567 1017.1 764.109 1021.53 762.799L1020.96 760.881ZM1008.86 768.91C1005.22 773.222 1002.4 779.131 1000.36 786.575L1002.29 787.104C1004.28 779.835 1007 774.22 1010.39 770.2L1008.86 768.91ZM1000.36 786.581C998.379 793.969 997.395 802.065 997.395 810.863H999.395C999.395 802.213 1000.36 794.294 1002.29 787.099L1000.36 786.581ZM997.395 810.863C997.395 827.477 1001.27 840.316 1009.17 849.222L1010.67 847.895C1003.2 839.483 999.395 827.193 999.395 810.863H997.395ZM1009.17 849.222C1012.86 853.383 1017.18 856.257 1022.12 857.813L1022.72 855.906C1018.15 854.467 1014.14 851.808 1010.67 847.895L1009.17 849.222ZM1022.13 857.817C1027.02 859.292 1034.17 860.008 1043.51 860.008V858.008C1034.23 858.008 1027.32 857.291 1022.71 855.902L1022.13 857.817ZM1043.51 860.008H1083.16V858.008H1043.51V860.008ZM1215.96 742.699H1216.96V741.699H1215.96V742.699ZM1215.96 759.691V760.691H1216.96V759.691H1215.96ZM1160.39 761.156L1160.15 760.185L1160.15 760.186L1160.39 761.156ZM1149.84 766.332L1149.22 765.548L1149.22 765.552L1149.84 766.332ZM1140.18 779.418L1139.25 779.041L1139.25 779.051L1140.18 779.418ZM1136.27 800.316L1135.27 800.256L1135.21 801.316H1136.27V800.316ZM1215.96 800.316H1216.96V799.316H1215.96V800.316ZM1215.96 817.309V818.309H1216.96V817.309H1215.96ZM1136.27 817.309V816.309H1135.29L1135.27 817.288L1136.27 817.309ZM1142.62 843.383L1141.75 843.876L1141.75 843.884L1142.62 843.383ZM1155.12 855.492L1154.69 856.398L1155.12 855.492ZM1215.96 859.008H1216.96V858.008H1215.96V859.008ZM1215.96 876V877H1216.96V876H1215.96ZM1144.86 872.191L1144.52 873.131L1144.52 873.131L1144.86 872.191ZM1117.42 842.406L1118.36 842.052L1118.36 842.05L1117.42 842.406ZM1120.35 772.875L1119.46 772.417L1119.46 772.421L1120.35 772.875ZM1141.93 749.535L1142.4 750.422L1141.93 749.535ZM1214.96 742.699V759.691H1216.96V742.699H1214.96ZM1215.96 758.691H1177.09V760.691H1215.96V758.691ZM1177.09 758.691C1169.9 758.691 1164.24 759.18 1160.15 760.185L1160.63 762.127C1164.49 761.179 1169.96 760.691 1177.09 760.691V758.691ZM1160.15 760.186C1156.11 761.197 1152.46 762.985 1149.22 765.548L1150.46 767.116C1153.48 764.731 1156.86 763.069 1160.63 762.126L1160.15 760.186ZM1149.22 765.552C1144.78 769.113 1141.46 773.615 1139.25 779.041L1141.1 779.795C1143.19 774.674 1146.31 770.452 1150.47 767.112L1149.22 765.552ZM1139.25 779.051C1137.11 784.46 1135.8 791.542 1135.27 800.256L1137.27 800.376C1137.79 791.773 1139.08 784.923 1141.11 779.785L1139.25 779.051ZM1136.27 801.316H1215.96V799.316H1136.27V801.316ZM1214.96 800.316V817.309H1216.96V800.316H1214.96ZM1215.96 816.309H1136.27V818.309H1215.96V816.309ZM1135.27 817.288C1135.07 827.026 1137.23 835.897 1141.75 843.876L1143.49 842.89C1139.15 835.244 1137.08 826.732 1137.27 817.329L1135.27 817.288ZM1141.75 843.884C1145.15 849.755 1149.46 853.952 1154.69 856.398L1155.54 854.586C1150.75 852.345 1146.72 848.469 1143.48 842.881L1141.75 843.884ZM1154.69 856.398C1159.9 858.83 1167.03 860.008 1176.02 860.008V858.008C1167.16 858.008 1160.36 856.842 1155.54 854.586L1154.69 856.398ZM1176.02 860.008H1215.96V858.008H1176.02V860.008ZM1214.96 859.008V876H1216.96V859.008H1214.96ZM1215.96 875H1172.11V877H1215.96V875ZM1172.11 875C1160.97 875 1152.02 873.736 1145.21 871.252L1144.52 873.131C1151.64 875.725 1160.85 877 1172.11 877V875ZM1145.21 871.252C1133.04 866.817 1124.07 857.147 1118.36 842.052L1116.49 842.76C1122.36 858.264 1131.69 868.452 1144.52 873.131L1145.21 871.252ZM1118.36 842.05C1115.29 833.995 1113.73 823.968 1113.73 811.938H1111.73C1111.73 824.126 1113.31 834.411 1116.49 842.762L1118.36 842.05ZM1113.73 811.938C1113.73 795.95 1116.26 783.102 1121.24 773.329L1119.46 772.421C1114.29 782.57 1111.73 795.763 1111.73 811.938H1113.73ZM1121.24 773.333C1126.83 762.466 1133.9 754.861 1142.4 750.422L1141.47 748.649C1132.52 753.324 1125.2 761.279 1119.46 772.417L1121.24 773.333ZM1142.4 750.422C1150.92 745.97 1162.88 743.699 1178.36 743.699V741.699C1162.72 741.699 1150.4 743.986 1141.47 748.649L1142.4 750.422ZM1178.36 743.699H1215.96V741.699H1178.36V743.699ZM1276.29 769.652L1277.13 769.11L1275.29 766.259V769.652H1276.29ZM1276.29 876V877H1277.29V876H1276.29ZM1255.59 876H1254.59V877H1255.59V876ZM1255.59 742.699V741.699H1254.59V742.699H1255.59ZM1280.98 742.699L1281.82 742.162L1281.53 741.699H1280.98V742.699ZM1348.95 849.34L1348.11 849.877L1349.95 852.769V849.34H1348.95ZM1348.95 742.699V741.699H1347.95V742.699H1348.95ZM1369.65 742.699H1370.65V741.699H1369.65V742.699ZM1369.65 876V877H1370.65V876H1369.65ZM1344.95 876L1344.11 876.542L1344.4 877H1344.95V876ZM1275.29 769.652V876H1277.29V769.652H1275.29ZM1276.29 875H1255.59V877H1276.29V875ZM1256.59 876V742.699H1254.59V876H1256.59ZM1255.59 743.699H1280.98V741.699H1255.59V743.699ZM1280.14 743.237L1348.11 849.877L1349.79 848.802L1281.82 742.162L1280.14 743.237ZM1349.95 849.34V742.699H1347.95V849.34H1349.95ZM1348.95 743.699H1369.65V741.699H1348.95V743.699ZM1368.65 742.699V876H1370.65V742.699H1368.65ZM1369.65 875H1344.95V877H1369.65V875ZM1345.79 875.458L1277.13 769.11L1275.45 770.195L1344.11 876.542L1345.79 875.458ZM1446.79 759.691H1447.79V758.691H1446.79V759.691ZM1400.69 759.691H1399.69V760.691H1400.69V759.691ZM1400.69 742.699V741.699H1399.69V742.699H1400.69ZM1514.27 742.699H1515.27V741.699H1514.27V742.699ZM1514.27 759.691V760.691H1515.27V759.691H1514.27ZM1468.07 759.691V758.691H1467.07V759.691H1468.07ZM1468.07 876V877H1469.07V876H1468.07ZM1446.79 876H1445.79V877H1446.79V876ZM1446.79 758.691H1400.69V760.691H1446.79V758.691ZM1401.69 759.691V742.699H1399.69V759.691H1401.69ZM1400.69 743.699H1514.27V741.699H1400.69V743.699ZM1513.27 742.699V759.691H1515.27V742.699H1513.27ZM1514.27 758.691H1468.07V760.691H1514.27V758.691ZM1467.07 759.691V876H1469.07V759.691H1467.07ZM1468.07 875H1446.79V877H1468.07V875ZM1447.79 876V759.691H1445.79V876H1447.79ZM1566.69 819.457V818.457H1565.69V819.457H1566.69ZM1566.69 876V877H1567.69V876H1566.69ZM1545.4 876H1544.4V877H1545.4V876ZM1545.4 742.699V741.699H1544.4V742.699H1545.4ZM1642.86 749.828L1643.43 749.005L1643.43 749.002L1642.86 749.828ZM1653.7 762.523L1652.81 762.966L1652.81 762.971L1653.7 762.523ZM1646.48 806.469L1647.12 807.234L1647.13 807.227L1646.48 806.469ZM1629.97 814.574L1629.7 813.612L1627.03 814.367L1629.57 815.489L1629.97 814.574ZM1654.48 855.688L1655.48 855.624L1655.48 855.62L1654.48 855.688ZM1655.66 870.336L1654.67 870.494L1654.67 870.513L1654.68 870.532L1655.66 870.336ZM1658 876V877H1659.73L1658.87 875.501L1658 876ZM1636.22 876L1635.34 876.479L1635.63 877H1636.22V876ZM1634.76 871.801L1633.77 871.936L1633.77 871.942L1634.76 871.801ZM1633.29 856.762L1634.29 856.671L1634.29 856.67L1633.29 856.762ZM1621.57 827.562L1620.94 828.332L1620.94 828.336L1621.57 827.562ZM1566.69 802.465H1565.69V803.465H1566.69V802.465ZM1627.14 798.461L1627.73 799.268L1627.74 799.261L1627.14 798.461ZM1626.46 762.621L1625.93 763.474L1625.94 763.475L1626.46 762.621ZM1566.69 759.691V758.691H1565.69V759.691H1566.69ZM1565.69 819.457V876H1567.69V819.457H1565.69ZM1566.69 875H1545.4V877H1566.69V875ZM1546.4 876V742.699H1544.4V876H1546.4ZM1545.4 743.699H1606.14V741.699H1545.4V743.699ZM1606.14 743.699C1623.63 743.699 1635.6 746.085 1642.3 750.654L1643.43 749.002C1636.19 744.066 1623.68 741.699 1606.14 741.699V743.699ZM1642.3 750.651C1646.77 753.74 1650.27 757.838 1652.81 762.966L1654.6 762.081C1651.92 756.662 1648.2 752.297 1643.43 749.005L1642.3 750.651ZM1652.81 762.971C1655.34 768.032 1656.61 773.574 1656.61 779.613H1658.61C1658.61 773.283 1657.28 767.432 1654.6 762.076L1652.81 762.971ZM1656.61 779.613C1656.61 790.902 1652.99 799.554 1645.82 805.71L1647.13 807.227C1654.81 800.623 1658.61 791.371 1658.61 779.613H1656.61ZM1645.83 805.704C1641.87 809.037 1636.51 811.685 1629.7 813.612L1630.24 815.536C1637.24 813.557 1642.88 810.801 1647.12 807.234L1645.83 805.704ZM1629.57 815.489C1638.46 819.419 1644.37 824.029 1647.47 829.246L1649.19 828.223C1645.79 822.503 1639.45 817.672 1630.38 813.66L1629.57 815.489ZM1647.47 829.246C1650.6 834.503 1652.64 843.288 1653.49 855.755L1655.48 855.62C1654.63 843.087 1652.57 833.903 1649.19 828.223L1647.47 829.246ZM1653.49 855.751C1654.01 863.865 1654.4 868.807 1654.67 870.494L1656.64 870.178C1656.39 868.609 1656 863.786 1655.48 855.624L1653.49 855.751ZM1654.68 870.532C1655.03 872.305 1655.87 874.298 1657.13 876.499L1658.87 875.501C1657.66 873.405 1656.93 871.622 1656.64 870.14L1654.68 870.532ZM1658 875H1636.22V877H1658V875ZM1637.1 875.521C1636.37 874.175 1635.92 872.889 1635.75 871.659L1633.77 871.942C1633.98 873.447 1634.52 874.96 1635.34 876.479L1637.1 875.521ZM1635.75 871.666C1635.56 870.262 1635.07 865.279 1634.29 856.671L1632.3 856.852C1633.08 865.432 1633.57 870.475 1633.77 871.936L1635.75 871.666ZM1634.29 856.67C1632.98 842.448 1629.03 832.382 1622.21 826.789L1620.94 828.336C1627.14 833.42 1631 842.82 1632.3 856.854L1634.29 856.67ZM1622.21 826.793C1615.42 821.156 1603.92 818.457 1587.98 818.457V820.457C1603.81 820.457 1614.71 823.161 1620.94 828.332L1622.21 826.793ZM1587.98 818.457H1566.69V820.457H1587.98V818.457ZM1566.69 803.465H1604.78V801.465H1566.69V803.465ZM1604.78 803.465C1610.44 803.465 1615.19 803.13 1618.99 802.448C1622.78 801.77 1625.73 800.734 1627.73 799.268L1626.55 797.654C1624.91 798.858 1622.31 799.823 1618.64 800.48C1614.99 801.133 1610.38 801.465 1604.78 801.465V803.465ZM1627.74 799.261C1633.25 795.13 1635.95 789.011 1635.95 781.078H1633.95C1633.95 788.51 1631.45 793.979 1626.54 797.661L1627.74 799.261ZM1635.95 781.078C1635.95 772.007 1633.04 765.458 1626.98 761.767L1625.94 763.475C1631.21 766.685 1633.95 772.441 1633.95 781.078H1635.95ZM1626.98 761.768C1625.2 760.679 1622.42 759.925 1618.78 759.433C1615.1 758.936 1610.43 758.691 1604.78 758.691V760.691C1610.39 760.691 1614.96 760.935 1618.51 761.415C1622.09 761.899 1624.52 762.61 1625.93 763.474L1626.98 761.768ZM1604.78 758.691H1566.69V760.691H1604.78V758.691ZM1565.69 759.691V802.465H1567.69V759.691H1565.69ZM1752.91 740.746V739.746L1752.9 739.746L1752.91 740.746ZM1805.64 763.5L1806.48 762.952L1806.47 762.949L1805.64 763.5ZM1798.32 862.328L1798.98 863.074L1798.98 863.072L1798.32 862.328ZM1701.15 858.52L1701.93 857.893L1701.93 857.89L1701.15 858.52ZM1691.09 837.523L1690.13 837.791L1690.13 837.799L1691.09 837.523ZM1691.29 781.762L1690.33 781.471L1690.33 781.476L1691.29 781.762ZM1702.12 760.668L1702.88 761.322L1702.89 761.317L1702.12 760.668ZM1723.02 745.824L1722.66 744.894L1723.02 745.824ZM1752.71 757.738L1752.72 756.738H1752.71V757.738ZM1715.7 776.977L1716.6 777.415V777.415L1715.7 776.977ZM1718.34 846.41L1717.5 846.966L1717.51 846.967L1718.34 846.41ZM1789.04 841.527L1789.95 841.947L1789.95 841.944L1789.04 841.527ZM1786.7 773.559L1787.54 773.027L1787.54 773.025L1786.7 773.559ZM1752.91 741.746C1777.84 741.746 1795.03 749.262 1804.81 764.051L1806.47 762.949C1796.2 747.399 1778.23 739.746 1752.91 739.746V741.746ZM1804.8 764.048C1811.95 774.958 1815.58 790.137 1815.58 809.691H1817.58C1817.58 789.923 1813.92 774.308 1806.48 762.952L1804.8 764.048ZM1815.58 809.691C1815.58 833.698 1809.53 850.912 1797.65 861.584L1798.98 863.072C1811.45 851.87 1817.58 833.992 1817.58 809.691H1815.58ZM1797.65 861.583C1786.23 871.794 1770.7 876.953 1750.95 876.953V878.953C1771.05 878.953 1787.1 873.695 1798.98 863.074L1797.65 861.583ZM1750.95 876.953C1728.35 876.953 1712.09 870.533 1701.93 857.893L1700.37 859.146C1711.04 872.417 1727.98 878.953 1750.95 878.953V876.953ZM1701.93 857.89C1697.87 852.884 1694.57 846.02 1692.05 837.248L1690.13 837.799C1692.69 846.735 1696.09 853.869 1700.37 859.149L1701.93 857.89ZM1692.05 837.256C1689.6 828.428 1688.38 819.208 1688.38 809.594H1686.38C1686.38 819.38 1687.63 828.78 1690.13 837.791L1692.05 837.256ZM1688.38 809.594C1688.38 799.852 1689.67 790.672 1692.24 782.048L1690.33 781.476C1687.69 790.3 1686.38 799.674 1686.38 809.594H1688.38ZM1692.24 782.052C1694.88 773.357 1698.44 766.462 1702.88 761.322L1701.37 760.014C1696.7 765.421 1693.03 772.589 1690.33 781.471L1692.24 782.052ZM1702.89 761.317C1708.44 754.803 1715.27 749.951 1723.39 746.755L1722.66 744.894C1714.24 748.208 1707.14 753.251 1701.36 760.019L1702.89 761.317ZM1723.39 746.755C1731.52 743.556 1741.35 741.875 1752.92 741.746L1752.9 739.746C1741.16 739.877 1731.07 741.582 1722.66 744.894L1723.39 746.755ZM1752.71 756.738C1734.04 756.738 1721.27 763.264 1714.8 776.538L1716.6 777.415C1722.63 765.038 1734.54 758.738 1752.71 758.738V756.738ZM1714.8 776.538C1710.93 784.48 1709.04 795.395 1709.04 809.203H1711.04C1711.04 795.538 1712.92 784.968 1716.6 777.415L1714.8 776.538ZM1709.04 809.203C1709.04 825.82 1711.81 838.457 1717.5 846.966L1719.17 845.854C1713.79 837.827 1711.04 825.66 1711.04 809.203H1709.04ZM1717.51 846.967C1724.27 857.044 1736.01 861.961 1752.42 861.961V859.961C1736.4 859.961 1725.42 855.177 1719.17 845.853L1717.51 846.967ZM1752.42 861.961C1761.74 861.961 1769.57 860.323 1775.86 856.986C1782.16 853.641 1786.86 848.616 1789.95 841.947L1788.13 841.108C1785.23 847.394 1780.83 852.086 1774.92 855.219C1769 858.36 1761.52 859.961 1752.42 859.961V861.961ZM1789.95 841.944C1793.29 834.653 1794.92 824.065 1794.92 810.277H1792.92C1792.92 823.964 1791.3 834.209 1788.13 841.11L1789.95 841.944ZM1794.92 810.277C1794.92 793.429 1792.51 780.954 1787.54 773.027L1785.85 774.09C1790.51 781.527 1792.92 793.532 1792.92 810.277H1794.92ZM1787.54 773.025C1780.73 762.234 1769.02 756.87 1752.72 756.738L1752.7 758.738C1768.56 758.867 1779.51 764.05 1785.85 774.092L1787.54 773.025ZM1977.68 740.746V739.746L1977.67 739.746L1977.68 740.746ZM2030.41 763.5L2031.25 762.952L2031.25 762.949L2030.41 763.5ZM2023.09 862.328L2023.76 863.074L2023.76 863.072L2023.09 862.328ZM1925.92 858.52L1926.7 857.893L1926.7 857.89L1925.92 858.52ZM1915.86 837.523L1914.9 837.791L1914.9 837.799L1915.86 837.523ZM1916.06 781.762L1915.1 781.471L1915.1 781.476L1916.06 781.762ZM1926.9 760.668L1927.66 761.322L1927.66 761.317L1926.9 760.668ZM1947.8 745.824L1947.43 744.894L1947.8 745.824ZM1977.48 757.738L1977.49 756.738H1977.48V757.738ZM1940.47 776.977L1941.37 777.415V777.415L1940.47 776.977ZM1943.11 846.41L1942.28 846.966L1942.28 846.967L1943.11 846.41ZM2013.81 841.527L2014.72 841.947L2014.72 841.944L2013.81 841.527ZM2011.47 773.559L2012.32 773.027L2012.31 773.025L2011.47 773.559ZM1963.42 731.371L1962.63 730.758L1961.38 732.371H1963.42V731.371ZM1982.07 707.348V706.348H1981.58L1981.28 706.734L1982.07 707.348ZM2003.46 707.348L2004.15 708.071L2005.96 706.348H2003.46V707.348ZM1978.27 731.371V732.371H1978.67L1978.96 732.095L1978.27 731.371ZM1977.68 741.746C2002.61 741.746 2019.8 749.262 2029.58 764.051L2031.25 762.949C2020.97 747.399 2003.01 739.746 1977.68 739.746V741.746ZM2029.58 764.048C2036.72 774.958 2040.35 790.137 2040.35 809.691H2042.35C2042.35 789.923 2038.69 774.308 2031.25 762.952L2029.58 764.048ZM2040.35 809.691C2040.35 833.698 2034.3 850.912 2022.42 861.584L2023.76 863.072C2036.23 851.87 2042.35 833.992 2042.35 809.691H2040.35ZM2022.42 861.583C2011 871.794 1995.47 876.953 1975.73 876.953V878.953C1995.82 878.953 2011.87 873.695 2023.76 863.074L2022.42 861.583ZM1975.73 876.953C1953.12 876.953 1936.86 870.533 1926.7 857.893L1925.14 859.146C1935.81 872.417 1952.76 878.953 1975.73 878.953V876.953ZM1926.7 857.89C1922.64 852.884 1919.34 846.02 1916.82 837.248L1914.9 837.799C1917.46 846.735 1920.87 853.869 1925.14 859.149L1926.7 857.89ZM1916.83 837.256C1914.38 828.428 1913.15 819.208 1913.15 809.594H1911.15C1911.15 819.38 1912.4 828.78 1914.9 837.791L1916.83 837.256ZM1913.15 809.594C1913.15 799.852 1914.44 790.672 1917.02 782.048L1915.1 781.476C1912.47 790.3 1911.15 799.674 1911.15 809.594H1913.15ZM1917.02 782.052C1919.66 773.357 1923.21 766.462 1927.66 761.322L1926.14 760.014C1921.47 765.421 1917.8 772.589 1915.1 781.471L1917.02 782.052ZM1927.66 761.317C1933.21 754.803 1940.04 749.951 1948.16 746.755L1947.43 744.894C1939.01 748.208 1931.91 753.251 1926.14 760.019L1927.66 761.317ZM1948.16 746.755C1956.29 743.556 1966.12 741.875 1977.69 741.746L1977.67 739.746C1965.93 739.877 1955.84 741.582 1947.43 744.894L1948.16 746.755ZM1977.48 756.738C1958.81 756.738 1946.04 763.264 1939.57 776.538L1941.37 777.415C1947.4 765.038 1959.31 758.738 1977.48 758.738V756.738ZM1939.57 776.538C1935.7 784.48 1933.81 795.395 1933.81 809.203H1935.81C1935.81 795.538 1937.69 784.968 1941.37 777.415L1939.57 776.538ZM1933.81 809.203C1933.81 825.82 1936.58 838.457 1942.28 846.966L1943.94 845.854C1938.57 837.827 1935.81 825.66 1935.81 809.203H1933.81ZM1942.28 846.967C1949.04 857.044 1960.79 861.961 1977.19 861.961V859.961C1961.17 859.961 1950.2 855.177 1943.94 845.853L1942.28 846.967ZM1977.19 861.961C1986.51 861.961 1994.35 860.323 2000.63 856.986C2006.94 853.641 2011.64 848.616 2014.72 841.947L2012.9 841.108C2010 847.394 2005.6 852.086 1999.7 855.219C1993.78 858.36 1986.29 859.961 1977.19 859.961V861.961ZM2014.72 841.944C2018.07 834.653 2019.7 824.065 2019.7 810.277H2017.7C2017.7 823.964 2016.07 834.209 2012.9 841.11L2014.72 841.944ZM2019.7 810.277C2019.7 793.429 2017.29 780.954 2012.32 773.027L2010.62 774.09C2015.29 781.527 2017.7 793.532 2017.7 810.277H2019.7ZM2012.31 773.025C2005.5 762.234 1993.8 756.87 1977.49 756.738L1977.48 758.738C1993.33 758.867 2004.28 764.05 2010.62 774.092L2012.31 773.025ZM1964.21 731.984L1982.86 707.961L1981.28 706.734L1962.63 730.758L1964.21 731.984ZM1982.07 708.348H2003.46V706.348H1982.07V708.348ZM2002.77 706.624L1977.58 730.647L1978.96 732.095L2004.15 708.071L2002.77 706.624ZM1978.27 730.371H1963.42V732.371H1978.27V730.371ZM2099.83 827.562V826.562H2098.83V827.562H2099.83ZM2099.83 876V877H2100.83V876H2099.83ZM2078.54 876H2077.54V877H2078.54V876ZM2078.54 742.699V741.699H2077.54V742.699H2078.54ZM2160.38 745.434L2160.04 746.373L2160.04 746.375L2160.38 745.434ZM2179.71 761.547L2180.59 761.06L2180.58 761.053L2179.71 761.547ZM2171.02 819.066L2170.38 818.3V818.3L2171.02 819.066ZM2156.86 825.609L2157.08 826.585L2156.86 825.609ZM2099.83 810.57H2098.83V811.57H2099.83V810.57ZM2155.59 804.809L2154.89 804.096L2154.89 804.101L2155.59 804.809ZM2155.5 765.16L2154.78 765.854L2154.78 765.857L2155.5 765.16ZM2099.83 759.691V758.691H2098.83V759.691H2099.83ZM2098.83 827.562V876H2100.83V827.562H2098.83ZM2099.83 875H2078.54V877H2099.83V875ZM2079.54 876V742.699H2077.54V876H2079.54ZM2078.54 743.699H2137.43V741.699H2078.54V743.699ZM2137.43 743.699C2147.69 743.699 2155.19 744.612 2160.04 746.373L2160.72 744.494C2155.54 742.609 2147.75 741.699 2137.43 741.699V743.699ZM2160.04 746.375C2168.35 749.356 2174.6 754.572 2178.85 762.041L2180.58 761.053C2176.1 753.157 2169.46 747.631 2160.72 744.492L2160.04 746.375ZM2178.84 762.033C2182.26 768.166 2183.99 775.703 2183.99 784.691H2185.99C2185.99 775.45 2184.21 767.558 2180.59 761.06L2178.84 762.033ZM2183.99 784.691C2183.99 799.578 2179.41 810.723 2170.38 818.3L2171.67 819.832C2181.26 811.785 2185.99 800.013 2185.99 784.691H2183.99ZM2170.38 818.3C2166.88 821.235 2162.32 823.358 2156.64 824.634L2157.08 826.585C2162.99 825.256 2167.87 823.017 2171.67 819.832L2170.38 818.3ZM2156.64 824.634C2150.95 825.913 2143.22 826.562 2133.43 826.562V828.562C2143.29 828.562 2151.18 827.91 2157.08 826.585L2156.64 824.634ZM2133.43 826.562H2099.83V828.562H2133.43V826.562ZM2099.83 811.57H2134.89V809.57H2099.83V811.57ZM2134.89 811.57C2144.92 811.57 2152.17 809.65 2156.3 805.516L2154.89 804.101C2151.34 807.65 2144.79 809.57 2134.89 809.57V811.57ZM2156.3 805.521C2160.99 800.895 2163.23 793.746 2163.23 784.301H2161.23C2161.23 793.475 2159.05 799.998 2154.89 804.096L2156.3 805.521ZM2163.23 784.301C2163.23 775.974 2160.93 769.318 2156.21 764.463L2154.78 765.857C2159.05 770.247 2161.23 776.351 2161.23 784.301H2163.23ZM2156.22 764.466C2154.28 762.461 2151.42 761.027 2147.73 760.089C2144.05 759.15 2139.46 758.691 2134.01 758.691V760.691C2139.37 760.691 2143.77 761.144 2147.24 762.028C2150.72 762.913 2153.19 764.213 2154.78 765.854L2156.22 764.466ZM2134.01 758.691H2099.83V760.691H2134.01V758.691ZM2098.83 759.691V810.57H2100.83V759.691H2098.83ZM2252.55 759.691H2253.55V758.691H2252.55V759.691ZM2206.46 759.691H2205.46V760.691H2206.46V759.691ZM2206.46 742.699V741.699H2205.46V742.699H2206.46ZM2320.03 742.699H2321.03V741.699H2320.03V742.699ZM2320.03 759.691V760.691H2321.03V759.691H2320.03ZM2273.84 759.691V758.691H2272.84V759.691H2273.84ZM2273.84 876V877H2274.84V876H2273.84ZM2252.55 876H2251.55V877H2252.55V876ZM2252.55 758.691H2206.46V760.691H2252.55V758.691ZM2207.46 759.691V742.699H2205.46V759.691H2207.46ZM2206.46 743.699H2320.03V741.699H2206.46V743.699ZM2319.03 742.699V759.691H2321.03V742.699H2319.03ZM2320.03 758.691H2273.84V760.691H2320.03V758.691ZM2272.84 759.691V876H2274.84V759.691H2272.84ZM2273.84 875H2252.55V877H2273.84V875ZM2253.55 876V759.691H2251.55V876H2253.55ZM2351.17 876H2350.17V877H2351.17V876ZM2351.17 742.699V741.699H2350.17V742.699H2351.17ZM2372.46 742.699H2373.46V741.699H2372.46V742.699ZM2372.46 876V877H2373.46V876H2372.46ZM2352.17 876V742.699H2350.17V876H2352.17ZM2351.17 743.699H2372.46V741.699H2351.17V743.699ZM2371.46 742.699V876H2373.46V742.699H2371.46ZM2372.46 875H2351.17V877H2372.46V875ZM2516.97 859.008H2517.97V858.008H2516.97V859.008ZM2516.97 876V877H2517.97V876H2516.97ZM2447.34 873.07L2447.07 874.033L2447.07 874.033L2447.34 873.07ZM2416.68 845.531L2417.59 845.117L2417.59 845.114L2416.68 845.531ZM2419.22 769.164L2420.1 769.642L2420.1 769.641L2419.22 769.164ZM2516.97 742.699H2517.97V741.699H2516.97V742.699ZM2516.97 759.691V760.691H2517.97V759.691H2516.97ZM2455.06 761.84L2455.34 762.799L2455.35 762.795L2455.06 761.84ZM2443.44 769.555L2444.2 770.2L2444.21 770.192L2443.44 769.555ZM2435.14 786.84L2434.17 786.575L2434.17 786.581L2435.14 786.84ZM2443.73 848.559L2444.48 847.895V847.895L2443.73 848.559ZM2456.23 856.859L2455.93 857.813L2455.94 857.817L2456.23 856.859ZM2515.97 859.008V876H2517.97V859.008H2515.97ZM2516.97 875H2475.57V877H2516.97V875ZM2475.57 875C2463.76 875 2454.45 874.025 2447.61 872.107L2447.07 874.033C2454.17 876.022 2463.68 877 2475.57 877V875ZM2447.61 872.108C2434.06 868.29 2424.06 859.333 2417.59 845.117L2415.77 845.945C2422.45 860.636 2432.89 870.038 2447.07 874.033L2447.61 872.108ZM2417.59 845.114C2412.9 834.912 2410.55 823.307 2410.55 810.277H2408.55C2408.55 823.55 2410.95 835.447 2415.77 845.949L2417.59 845.114ZM2410.55 810.277C2410.55 794.859 2413.74 781.323 2420.1 769.642L2418.34 768.686C2411.8 780.703 2408.55 794.576 2408.55 810.277H2410.55ZM2420.1 769.641C2425.36 759.951 2431.96 753.256 2439.87 749.46L2439 747.657C2430.63 751.674 2423.75 758.716 2418.34 768.687L2420.1 769.641ZM2439.87 749.46C2447.81 745.648 2459.29 743.699 2474.39 743.699V741.699C2459.16 741.699 2447.34 743.656 2439 747.657L2439.87 749.46ZM2474.39 743.699H2516.97V741.699H2474.39V743.699ZM2515.97 742.699V759.691H2517.97V742.699H2515.97ZM2516.97 758.691H2475.57V760.691H2516.97V758.691ZM2475.57 758.691C2466.49 758.691 2459.53 759.407 2454.76 760.885L2455.35 762.795C2459.83 761.408 2466.55 760.691 2475.57 760.691V758.691ZM2454.78 760.881C2449.96 762.305 2445.92 764.991 2442.67 768.917L2444.21 770.192C2447.21 766.567 2450.91 764.109 2455.34 762.799L2454.78 760.881ZM2442.67 768.91C2439.03 773.222 2436.21 779.131 2434.17 786.575L2436.1 787.104C2438.1 779.835 2440.81 774.22 2444.2 770.2L2442.67 768.91ZM2434.17 786.581C2432.19 793.969 2431.21 802.065 2431.21 810.863H2433.21C2433.21 802.213 2434.18 794.294 2436.1 787.099L2434.17 786.581ZM2431.21 810.863C2431.21 827.477 2435.08 840.316 2442.98 849.222L2444.48 847.895C2437.02 839.483 2433.21 827.193 2433.21 810.863H2431.21ZM2442.98 849.222C2446.67 853.383 2450.99 856.257 2455.93 857.813L2456.53 855.906C2451.97 854.467 2447.95 851.808 2444.48 847.895L2442.98 849.222ZM2455.94 857.817C2460.84 859.292 2467.99 860.008 2477.32 860.008V858.008C2468.04 858.008 2461.13 857.291 2456.52 855.902L2455.94 857.817ZM2477.32 860.008H2516.97V858.008H2477.32V860.008ZM2605.73 740.746V739.746L2605.72 739.746L2605.73 740.746ZM2658.46 763.5L2659.3 762.952L2659.3 762.949L2658.46 763.5ZM2651.14 862.328L2651.8 863.074L2651.81 863.072L2651.14 862.328ZM2553.97 858.52L2554.75 857.893L2554.75 857.89L2553.97 858.52ZM2543.91 837.523L2542.95 837.791L2542.95 837.799L2543.91 837.523ZM2544.11 781.762L2543.15 781.471L2543.15 781.476L2544.11 781.762ZM2554.95 760.668L2555.7 761.322L2555.71 761.317L2554.95 760.668ZM2575.84 745.824L2575.48 744.894L2575.84 745.824ZM2605.53 757.738L2605.54 756.738H2605.53V757.738ZM2568.52 776.977L2569.42 777.415V777.415L2568.52 776.977ZM2571.16 846.41L2570.33 846.966L2570.33 846.967L2571.16 846.41ZM2641.86 841.527L2642.77 841.947L2642.77 841.944L2641.86 841.527ZM2639.52 773.559L2640.36 773.027L2640.36 773.025L2639.52 773.559ZM2605.73 741.746C2630.66 741.746 2647.85 749.262 2657.63 764.051L2659.3 762.949C2649.02 747.399 2631.05 739.746 2605.73 739.746V741.746ZM2657.62 764.048C2664.77 774.958 2668.4 790.137 2668.4 809.691H2670.4C2670.4 789.923 2666.74 774.308 2659.3 762.952L2657.62 764.048ZM2668.4 809.691C2668.4 833.698 2662.35 850.912 2650.47 861.584L2651.81 863.072C2664.27 851.87 2670.4 833.992 2670.4 809.691H2668.4ZM2650.47 861.583C2639.05 871.794 2623.52 876.953 2603.77 876.953V878.953C2623.87 878.953 2639.92 873.695 2651.8 863.074L2650.47 861.583ZM2603.77 876.953C2581.17 876.953 2564.91 870.533 2554.75 857.893L2553.19 859.146C2563.86 872.417 2580.8 878.953 2603.77 878.953V876.953ZM2554.75 857.89C2550.69 852.884 2547.39 846.02 2544.87 837.248L2542.95 837.799C2545.51 846.735 2548.91 853.869 2553.19 859.149L2554.75 857.89ZM2544.87 837.256C2542.43 828.428 2541.2 819.208 2541.2 809.594H2539.2C2539.2 819.38 2540.45 828.78 2542.95 837.791L2544.87 837.256ZM2541.2 809.594C2541.2 799.852 2542.49 790.672 2545.06 782.048L2543.15 781.476C2540.51 790.3 2539.2 799.674 2539.2 809.594H2541.2ZM2545.06 782.052C2547.7 773.357 2551.26 766.462 2555.7 761.322L2554.19 760.014C2549.52 765.421 2545.85 772.589 2543.15 781.471L2545.06 782.052ZM2555.71 761.317C2561.26 754.803 2568.09 749.951 2576.21 746.755L2575.48 744.894C2567.06 748.208 2559.96 753.251 2554.18 760.019L2555.71 761.317ZM2576.21 746.755C2584.34 743.556 2594.17 741.875 2605.74 741.746L2605.72 739.746C2593.98 739.877 2583.89 741.582 2575.48 744.894L2576.21 746.755ZM2605.53 756.738C2586.86 756.738 2574.09 763.264 2567.62 776.538L2569.42 777.415C2575.45 765.038 2587.36 758.738 2605.53 758.738V756.738ZM2567.62 776.538C2563.75 784.48 2561.86 795.395 2561.86 809.203H2563.86C2563.86 795.538 2565.74 784.968 2569.42 777.415L2567.62 776.538ZM2561.86 809.203C2561.86 825.82 2564.63 838.457 2570.33 846.966L2571.99 845.854C2566.61 837.827 2563.86 825.66 2563.86 809.203H2561.86ZM2570.33 846.967C2577.09 857.044 2588.83 861.961 2605.24 861.961V859.961C2589.22 859.961 2578.24 855.177 2571.99 845.853L2570.33 846.967ZM2605.24 861.961C2614.56 861.961 2622.39 860.323 2628.68 856.986C2634.98 853.641 2639.68 848.616 2642.77 841.947L2640.95 841.108C2638.05 847.394 2633.65 852.086 2627.74 855.219C2621.82 858.36 2614.34 859.961 2605.24 859.961V861.961ZM2642.77 841.944C2646.11 834.653 2647.74 824.065 2647.74 810.277H2645.74C2645.74 823.964 2644.12 834.209 2640.95 841.11L2642.77 841.944ZM2647.74 810.277C2647.74 793.429 2645.33 780.954 2640.36 773.027L2638.67 774.09C2643.33 781.527 2645.74 793.532 2645.74 810.277H2647.74ZM2640.36 773.025C2633.55 762.234 2621.84 756.87 2605.54 756.738L2605.52 758.738C2621.38 758.867 2632.33 764.05 2638.67 774.092L2640.36 773.025Z" fill="#fafafa"/>
<defs>
<radialGradient id="paint0_radial" cx="0" cy="0" r="1" gradientUnits="userSpaceOnUse" gradientTransform="translate(516.571 515.571) rotate(90) scale(680.696 680.696)">
<stop stop-color="#EBF7FB"/>
<stop offset="0.285601" stop-color="#82C0DA"/>
<stop offset="0.607138" stop-color="#12AFEA"/>
</radialGradient>
</defs>
</svg>
