<?xml version="1.0" encoding="utf-8"?>
<svg viewBox="70.139 124.953 147.736 304.254" xmlns="http://www.w3.org/2000/svg" xmlns:bx="https://boxy-svg.com">
  <g transform="matrix(0.1, 0, 0, -0.1, -111.836571, 521.990173)" fill="#000000" stroke="none">
    <path style="fill: #bccee1; paint-order: fill; stroke: #bccee1;" d="M 1670.725 2568.188 C 1622.945 2576.048 1621.395 3035.738 1623.825 3075.018 L 1487.535 3023.898 C 1449.675 3008.938 1429.775 3032.798 1455.735 3055.698 C 1453.985 3055.518 1639.055 3263.768 1675.505 3267.408 C 1712.465 3264.568 1912.625 3054.368 1895.275 3055.698 C 1921.235 3032.798 1901.335 3008.938 1863.475 3023.898 L 1727.185 3075.018 C 1729.615 3035.738 1718.505 2578.438 1670.725 2568.188 Z" transform="matrix(-1, 0, 0, -1, 3831.830476, 6538.56094)" bx:origin="1.019192 1.002678"/>
    <path d="M 2229 3223 C 2229 3223 2128 3220 2120 3220 C 2090 3220 1994 3168 1957 3132 C 1840 3020 1829 2839 1930 2711 C 1952 2683 1974 2660 1979 2660 C 1983 2660 1978 2697 1968 2743 C 1921 2951 2004 3080 2185 3080 C 2249 3080 2306 3053 2352 3002 C 2388 2962 2407 2914 2434 2795 L 2447 2735 L 2463 2772 C 2508 2872 2505 2967 2453 3062 C 2418 3127 2361 3175 2287 3202 L 2229 3223 Z" style="fill: #bccee1;"/>
    <path d="M2100 2987 c-48 -25 -90 -89 -90 -136 0 -15 38 -218 85 -451 47 -233 85 -428 85 -432 0 -5 -34 10 -75 33 -70 38 -81 41 -135 37 -49 -3 -66 -10 -91 -34 -17 -16 -38 -43 -45 -61 -41 -95 -5 -154 262 -438 240 -255 247 -265 290 -437 32 -128 40 -142 85 -140 48 2 755 149 779 162 27 14 34 49 26 126 -4 38 0 136 10 237 18 189 14 377 -11 507 -42 219 -88 418 -103 445 -22 38 -94 75 -147 75 -22 0 -57 -9 -77 -19 -36 -20 -36 -20 -54 1 -48 52 -138 64 -203 27 l-38 -21 -38 26 c-44 30 -118 35 -164 11 l-28 -14 -41 205 c-46 229 -60 262 -126 293 -55 27 -102 26 -156 -2z" style="fill: #bccee1;"/>
  </g>
</svg>